<?xml version="1.0" encoding="UTF-8"?><svg id="Layer_2" xmlns="http://www.w3.org/2000/svg" xmlns:xlink="http://www.w3.org/1999/xlink" viewBox="0 0 990 540"><defs><style>.cls-1 {
  fill: #fff;
}

.cls-2 {
  fill: #ffce31;
}

.cls-3 {
  fill: #ff7dff;
}

.cls-4 {
  clip-path: url("#clippath-1");
}

.cls-5 {
  fill: #ff9700;
}

.cls-6 {
  fill: #824379;
}

.cls-7 {
  fill: url("#Motivo_nuevo_5");
}

.cls-8 {
  clip-path: url("#clippath");
}

.cls-9 {
  fill: none;
}

.cls-10 {
  fill: #141414;
}

</style><clipPath id="clippath"><path class="cls-9" d="M89.64,125.72c-1.26-.38-3.52-2.26-4.7-.7-.4,.54-.34,1.25-.27,1.87,.12,1.15,.27,2.26,.37,3.4-.95,.16-2.37,1.21-2.65,1.42-2.01,1.5-3.65,3.42-5.11,5.43-.85,1.16-1.64,2.36-2.43,3.56-.85,1.29-2.04,2.68-2.49,4.18-.7,2.29,1.1,2.79,2.88,3.15,1.48,.3,1.78,1.61,2.82,2.48,.91,.76,2.07,.79,3.2,.9,.84,.08,1.56,.15,2.3,.57,.51,.29,.96,.71,1.49,.95,.88,.4,1.69,.37,2.48-.19,2-1.41,2.57-4.36,3.07-6.57,.6-2.63,1.14-5.37,.94-8.09-.15-1.98-.73-4.19-2.02-5.79,1.39-.99,3.24-2.37,3.55-3.9,.34-1.6-2.35-2.35-3.45-2.68Z"></path></clipPath><clipPath id="clippath-1"><path class="cls-9" d="M22.14,28.22c-1.26-.38-3.52-2.26-4.7-.7-.4,.54-.34,1.25-.27,1.87,.12,1.15,.27,2.26,.37,3.4-.95,.16-2.37,1.21-2.65,1.42-2.01,1.5-3.65,3.42-5.11,5.43-.85,1.16-1.64,2.36-2.43,3.56-.85,1.29-2.04,2.68-2.49,4.18-.7,2.29,1.1,2.79,2.88,3.15,1.48,.3,1.78,1.61,2.82,2.48,.91,.76,2.07,.79,3.2,.9,.84,.08,1.56,.15,2.3,.57,.51,.29,.96,.71,1.49,.95,.88,.4,1.69,.37,2.48-.19,2-1.41,2.57-4.36,3.07-6.57,.6-2.63,1.14-5.37,.94-8.09-.15-1.98-.73-4.19-2.02-5.79,1.39-.99,3.24-2.37,3.55-3.9,.34-1.6-2.35-2.35-3.45-2.68Z"></path></clipPath><pattern id="Motivo_nuevo_5" x="0" y="0" width="135" height="195" patternTransform="translate(342.84 -177.65)" patternUnits="userSpaceOnUse" viewBox="0 0 135 195"><g><rect class="cls-9" x="0" y="0" width="135" height="195"></rect><g><path class="cls-2" d="M87.73,182.47v-.03c.21-.89,.36-1.79,.57-2.67,.2-.82,.36-1.65,.45-2.49,.73-.13,1.51-.57,2.09-.8,.73-.28,1.45-.57,2.17-.87,.2-.08,2.08-.7,1.31-1.09-.99-.51-1.99-.99-2.96-1.54-.48-.27-1.49-.66-1.69-1.2-.12-.31-.1-.66-.1-.99,0-1.49-.39-2.93-.57-4.4-.02-.18-.05-.38-.17-.52-.55-.61-2.27,1.44-2.62,1.78-.63,.61-1.41,1.21-1.97,1.92-.63-.29-1.34-.44-2-.63-1.05-.3-2.08-.64-3.1-1.05-.42-.17-.81,.21-.6,.63,.47,.98,.9,2.01,1.3,3.02,.29,.71,.49,1.49,.87,2.16-.31,.26-.57,.71-.73,.94-.51,.71-.99,1.44-1.45,2.18-.24,.37-1.39,1.66-.86,2.04,.22,.16,.7,.03,.96,0,.95-.1,1.89-.32,2.84-.41,.23-.02,1.88-.39,1.96-.26,.93,1.67,2.45,3.21,3.74,4.53,.26,.26,.49,0,.56-.26Z"></path><g><g><path class="cls-10" d="M147.09,179.7c.78-5.62-.67-11.3-1.87-16.76-.27-1.24-.3-3.39-1.36-4.29-.98-.83-2.35-.33-3.07,.57-.98,1.22-1.25,2.72-2.42,3.87-1.12,1.1-2.86,2-4.47,1.95-2.04-.06-3.16-1.92-4.48-3.24-.85-.85-1.79-2.14-3.03-2.44-2.64-.64-2.4,3.87-2.51,5.38-.24,3.41-.18,6.84-.47,10.25-.25,2.84-.52,6.62-3.07,8.28-3.07,1.21-6.61,.85-9.52,2.66-.51,.32-.98,.68-1.42,1.06-3.24-4.1-4.83-7.72-5.14-11.65-.37-4.69,1.1-9.41,3.82-12.31,.78-.83,2.85-2.66,5.3-1.82,1.86,.64,3.44,2.51,3.94,4.64,.29,1.23,.08,2.65-.53,3.59-.43,.67-1.02,1.08-1.76,1.22-1.07,.21-1.95-.39-2.32-1.03-.39-.67-.29-1.42,.25-2.05,.42-.48,.38-1.18-.09-1.65-.48-.48-1.18-.51-1.67-.08-1.54,1.35-1.94,3.27-1.06,5.01,.87,1.73,3.07,3.19,5.56,2.64,1.96-.43,3.38-1.62,4.1-3.45,.97-2.46,.51-5.85-1.13-8.24-1.39-2.03-3.39-3.32-5.64-3.63-2.15-.3-4.32,.35-6.11,1.84-4.11,3.42-5.66,9.24-5.73,13.54-.11,5.89,2.27,11.83,6.21,15.67-1.34,1.94-2.18,4.25-2.58,6.58-.76,4.37-.41,9.08,1.13,13.25,.99,2.7,3.15,5.69,6.09,5.82,.65,.18,1.19,.08,1.65-.22,.1-.03,.2-.06,.3-.1,.28-.1,.39-.32,.38-.54,.13-.17,.26-.36,.37-.56-.28-.73-.52-1.47-.74-2.2-.76-2.55-1.3-5.42-.95-8.08,.06-.46,.82-.68,.9-.12,.37,2.48,.58,4.95,1.27,7.37,.1,.36,.22,.7,.34,1.05,.02-.06,.04-.11,.05-.17,.73,1.72,1.84,3.33,3.87,2.77,1.1-.3,1.88-1.19,2.49-2.1,.59-.89,1.25-1.96,1.56-3.06,.4-1.1,1.19-3.09,2.53-1.92,.74,.65,1.15,1.77,1.7,2.57,.85,1.26,2.05,2.51,3.65,2.68,4,.42,3.77-4.5,5.02-6.94,.44-.3,1.06-.25,1.51,.21,.55,.56,.82,1.33,1.35,1.93,.61,1.58,1.74,2.96,3.4,3.35,2.68,.63,4.26-1.37,4.06-3.87-.29-3.74-1.12-7.43-1.57-11.16-.34-2.77-.63-5.6-.23-8.38,.38-2.68,1.76-5.01,2.14-7.71Z"></path><g><path class="cls-1" d="M131.8,170.89c-.54-.34-1.17-.43-1.77-.33,.04,.02,.08,.04,.12,.07,1.17,.73,1.71,2.34,1.02,3.58-.41,.74-1.17,1.24-1.98,1.38h.02c1.27,.7,2.93,.11,3.61-1.12,.69-1.24,.15-2.84-1.02-3.58Z"></path><path class="cls-6" d="M131.16,174.2c.69-1.24,.15-2.84-1.02-3.58-.04-.02-.08-.04-.12-.07-.73,.13-1.42,.55-1.85,1.17-.17,.24-.28,.51-.35,.78,0,.02,0,.04-.01,.05-.01,.05-.02,.1-.03,.15-.19,1.11,.4,2.31,1.39,2.87,.81-.14,1.57-.65,1.98-1.38Z"></path></g><path class="cls-1" d="M139.65,176.78c-.67-.49-1.36-.95-2.05-1.42,.23-.37,.45-.74,.67-1.12,.29-.52-.44-.91-.78-.46-.25,.32-.49,.65-.74,.97-.46-.33-.94-.66-1.46-.8-.34-.09-.72,.32-.49,.63,.32,.44,.77,.77,1.24,1.08-.55,.71-1.11,1.41-1.69,2.1-.51,.6,.37,1.48,.87,.87,.62-.75,1.21-1.53,1.76-2.33,.7,.49,1.39,.99,2.11,1.45,.62,.4,1.14-.55,.57-.97Z"></path></g><path class="cls-1" d="M126.41,175.86c-1.8-.84-4.33-1.68-6.28-.91-.21,.08-.27,.43,0,.48,.95,.2,1.93,.13,2.89,.25,1.08,.14,2.11,.42,3.12,.83,.37,.15,.64-.48,.27-.65Z"></path><path class="cls-1" d="M126.94,178.04c-2.36-.57-5.03-.75-7.35,.09-.32,.12-.3,.65,.09,.63,2.43-.12,4.75-.41,7.2-.23,.29,.02,.34-.43,.07-.5Z"></path></g><g><path class="cls-6" d="M98.78,220.18c-1.67-3.79-5.89-5.39-9.53-6.64-3.34-1.14-6.85-2-10.39-2.46-.21-.22-.43-.44-.63-.67-1.32-1.48-2.28-3.2-3.29-4.9-.94-1.58-1.87-3.15-2.81-4.72-.83-1.39-1.61-3.01-2.75-4.2,.86-2.63,.99-6.29-1.62-6.92,.11-.23,.21-.45,.3-.65,1.06-2.46,.84-4.86,.78-7.48-.06-2.47,.39-4.93,1.25-7.25,.71-1.92,.76-4.04,1.02-6.11,.24-1.91-.61-3.05-2.37-2.09-2.15,1.16-3.4,4.37-4.6,6.32-1.81,2.94-3.61,5.86-5.41,8.8-1.58,2.6-3.18,5.23-4.06,8.16-.95,3.15-.79,6.5-1.11,9.74-.35,3.53-.99,7.02-1.89,10.45-.44,1.65-.81,3.59-1.75,5.03-.94,1.44-2.59,2.24-4.02,3.1-1.52,.92-3.13,1.8-4.69,2.75-5.08,2.45-12.78,7.61-7.09,12,2.91,2.25,7.8,2.18,11.29,2.35,4.58,.22,9.2,.15,13.79,.11,8.79-.08,17.68-.5,26.25-2.62,5.34-1.32,16.83-4.18,13.34-12.11Z"></path><path class="cls-3" d="M65.67,190.72c-.14-.06-.27-.13-.41-.17-.77-.22-1.54-.45-2.32-.63-.14-.03-.25-.09-.29-.25-.11-.52-.22-1.05-.34-1.57-.11-.47-.23-.93-.35-1.4-.04-.16-.11-.2-.28-.11-.21,.12-.31,.32-.41,.51-.39,.72-.89,1.36-1.38,2.01-.06,.08-.12,.11-.22,.09-.4-.1-.81-.14-1.23-.17-.32-.11-.67-.06-1.01-.11-.19-.03-.41-.04-.61,.03-.22,.07-.29,.19-.16,.32,.15,.16,.25,.35,.37,.52,.3,.4,.65,.76,.96,1.15,.22,.27,.5,.51,.19,.89,0,0,0,.02,0,.02-.15,.56-.41,1.07-.59,1.62-.1,.31-.23,.62-.31,.94-.02,.1-.1,.21,.04,.3,.12,.08,.22,.01,.33-.03,.22-.08,.42-.22,.64-.31,.37-.16,.75-.32,1.11-.52,.21-.12,.45-.18,.66-.32,.08-.05,.11,.02,.17,.07,.45,.44,.91,.86,1.34,1.31,.29,.3,.65,.49,.92,.81,.11,.12,.25,.26,.4,.2,.17-.07,.11-.27,.11-.43,0-.35-.04-.7,0-1.04,.08-.63,.09-1.25,0-1.87-.02-.18,.02-.32,.2-.37,.34-.11,.64-.29,.96-.44,.47-.22,.93-.45,1.4-.68,.1-.05,.17-.12,.19-.22,.02-.07-.04-.12-.1-.15Z"></path><path class="cls-3" d="M67.1,177.33c-.07,.03-.15,.06-.22,.1-.37,.22-.74,.43-1.1,.66-.06,.04-.13,.06-.2,.02-.24-.15-.48-.31-.73-.45-.22-.13-.44-.26-.67-.38-.08-.04-.12-.03-.14,.07-.03,.12,.01,.24,.04,.35,.13,.42,.19,.85,.26,1.28,0,.05,0,.09-.05,.12-.19,.11-.35,.26-.52,.41-.16,.08-.27,.24-.41,.35-.08,.06-.17,.14-.22,.24-.05,.11-.03,.18,.06,.18,.12,0,.23,.03,.34,.05,.27,.04,.53,.03,.8,.06,.18,.02,.38,0,.41,.26h0c.16,.28,.26,.57,.41,.84,.08,.15,.15,.32,.25,.47,.03,.05,.04,.12,.13,.1,.07-.02,.09-.08,.11-.14,.05-.12,.07-.24,.12-.36,.08-.2,.16-.41,.21-.62,.03-.13,.1-.24,.12-.37,.01-.05,.05-.04,.09-.04,.33,0,.67-.03,1-.03,.22,0,.43-.07,.65-.06,.09,0,.19,0,.23-.08,.04-.09-.06-.15-.12-.2-.13-.13-.28-.25-.4-.39-.21-.26-.45-.5-.72-.7-.08-.06-.11-.13-.07-.21,.09-.17,.13-.35,.19-.53,.09-.26,.17-.53,.26-.79,.02-.06,.02-.11-.02-.16-.02-.03-.06-.03-.09-.02Z"></path></g><path class="cls-6" d="M131.91,154.37v-.02c.15-.57,.25-1.14,.4-1.71,.13-.52,.25-1.06,.31-1.6,.47-.07,.98-.35,1.35-.49,.47-.17,.94-.35,1.4-.54,.13-.05,1.34-.43,.85-.69-.63-.34-1.27-.66-1.89-1.02-.31-.18-.95-.44-1.07-.79-.07-.2-.06-.42-.05-.64,.01-.95-.22-1.89-.32-2.83-.01-.12-.03-.25-.11-.34-.35-.4-1.47,.9-1.7,1.11-.41,.39-.92,.76-1.28,1.21-.4-.19-.85-.3-1.28-.43-.67-.21-1.33-.43-1.98-.7-.27-.11-.52,.12-.39,.4,.29,.64,.55,1.3,.81,1.95,.18,.46,.3,.96,.53,1.4-.2,.16-.37,.45-.48,.59-.33,.45-.65,.92-.96,1.39-.15,.24-.91,1.05-.57,1.3,.14,.1,.45,.03,.61,.01,.61-.05,1.21-.19,1.83-.23,.15-.01,1.21-.23,1.26-.15,.58,1.08,1.54,2.09,2.36,2.95,.16,.17,.31,0,.36-.16Z"></path><path class="cls-10" d="M122.33,144.48v-.04c-.19-.57-.64-1.11-1.25-1.24-.19-.04-.41-.07-.6-.08-.93-.03-1.82,.84-1.78,1.78,.04,.96,.78,1.79,1.78,1.78-.5-.07-.46-.07,.13,.01,.18,.01,.35-.01,.51-.08,.84-.34,1.52-1.16,1.21-2.14Z"></path><path class="cls-10" d="M110.81,149.13c-2.16,0-2.16,3.35,0,3.35s2.16-3.35,0-3.35Z"></path><path class="cls-10" d="M112.7,143.3c-.71,0-1.38,.62-1.36,1.36,.01,.28,.06,.54,.12,.81,.24,1.23,2.24,1.23,2.48,0,.05-.27,.11-.54,.12-.81,.03-.73-.64-1.36-1.36-1.36Z"></path><path class="cls-1" d="M117.53,185.71c-1.56,.22-2.96,.89-4.15,1.92-.61,.53,.28,1.41,.88,.88,1.03-.9,2.25-1.41,3.6-1.6,.79-.11,.46-1.31-.33-1.21Z"></path><path class="cls-1" d="M118.99,188.05c-1.61,.06-3,.81-3.96,2.09-.48,.64,.6,1.27,1.08,.63,.69-.91,1.75-1.43,2.89-1.47,.8-.03,.81-1.28,0-1.25Z"></path><path class="cls-1" d="M118.83,190.71c-1.13,.2-2.08,.85-2.74,1.78-.47,.66,.62,1.28,1.08,.63,.48-.67,1.19-1.07,2-1.21,.79-.14,.46-1.35-.33-1.21Z"></path><path class="cls-1" d="M112.36,190.9c-.81,.3-1.46,.83-1.86,1.6-.37,.71,.71,1.35,1.08,.63,.24-.47,.61-.84,1.11-1.03,.75-.28,.42-1.49-.33-1.21Z"></path><path class="cls-1" d="M113.61,193.05c-.8,0-.81,1.25,0,1.25s.81-1.25,0-1.25Z"></path></g><g><path class="cls-6" d="M51.98,175.58v-.03c-.09-.95-.23-1.89-.31-2.83-.07-.88-.18-1.76-.37-2.62,.68-.37,1.31-1.07,1.82-1.48,.63-.52,1.25-1.04,1.87-1.58,.17-.15,1.83-1.38,.94-1.51-1.15-.18-2.3-.33-3.45-.56-.57-.11-1.69-.17-2.07-.64-.22-.27-.31-.62-.42-.95-.49-1.48-1.35-2.78-2.01-4.18-.08-.18-.17-.36-.34-.46-.75-.42-1.78,2.17-2.02,2.63-.43,.82-1,1.66-1.32,2.55-.72-.08-1.47,0-2.19,.03-1.14,.04-2.28,.05-3.42-.02-.47-.03-.73,.47-.39,.82,.79,.82,1.55,1.7,2.28,2.57,.51,.61,.98,1.32,1.57,1.86-.22,.36-.33,.89-.42,1.17-.27,.87-.51,1.76-.73,2.64-.11,.45-.83,2.1-.18,2.31,.27,.08,.71-.2,.95-.31,.91-.41,1.77-.94,2.69-1.33,.22-.1,1.74-1.01,1.86-.9,1.47,1.35,3.49,2.38,5.2,3.27,.34,.18,.48-.17,.47-.44Z"></path><g><g><path class="cls-10" d="M12.09,179.7c.78-5.62-.67-11.3-1.87-16.76-.27-1.24-.3-3.39-1.36-4.29-.98-.83-2.35-.33-3.07,.57-.98,1.22-1.25,2.72-2.42,3.87-1.12,1.1-2.86,2-4.47,1.95-2.04-.06-3.16-1.92-4.49-3.24-.85-.85-1.79-2.14-3.03-2.44-2.64-.64-2.4,3.87-2.51,5.38-.24,3.41-.18,6.84-.47,10.25-.25,2.84-.52,6.62-3.07,8.28-3.07,1.21-6.61,.85-9.52,2.66-.51,.32-.98,.68-1.42,1.06-3.24-4.1-4.83-7.72-5.14-11.65-.37-4.69,1.1-9.41,3.82-12.31,.78-.83,2.85-2.66,5.3-1.82,1.86,.64,3.44,2.51,3.94,4.64,.29,1.23,.08,2.65-.53,3.59-.43,.67-1.02,1.08-1.76,1.22-1.07,.21-1.95-.39-2.32-1.03-.39-.67-.29-1.42,.25-2.05,.42-.48,.38-1.18-.09-1.65-.48-.48-1.18-.51-1.67-.08-1.54,1.35-1.94,3.27-1.06,5.01,.87,1.73,3.07,3.19,5.56,2.64,1.96-.43,3.38-1.62,4.1-3.45,.97-2.46,.51-5.85-1.13-8.24-1.39-2.03-3.39-3.32-5.64-3.63-2.15-.3-4.32,.35-6.11,1.84-4.11,3.42-5.66,9.24-5.73,13.54-.11,5.89,2.27,11.83,6.21,15.67-1.34,1.94-2.18,4.25-2.58,6.58-.76,4.37-.41,9.08,1.13,13.25,.99,2.7,3.15,5.69,6.09,5.82,.65,.18,1.19,.08,1.65-.22,.1-.03,.2-.06,.3-.1,.28-.1,.39-.32,.38-.54,.13-.17,.26-.36,.37-.56-.28-.73-.52-1.47-.74-2.2-.76-2.55-1.3-5.42-.95-8.08,.06-.46,.82-.68,.9-.12,.37,2.48,.58,4.95,1.27,7.37,.1,.36,.22,.7,.34,1.05,.02-.06,.04-.11,.05-.17,.73,1.72,1.84,3.33,3.87,2.77,1.1-.3,1.88-1.19,2.49-2.1,.59-.89,1.25-1.96,1.56-3.06,.4-1.1,1.19-3.09,2.53-1.92,.74,.65,1.15,1.77,1.7,2.57,.85,1.26,2.05,2.51,3.65,2.68,4,.42,3.77-4.5,5.02-6.94,.44-.3,1.06-.25,1.51,.21,.55,.56,.82,1.33,1.35,1.93,.61,1.58,1.74,2.96,3.4,3.35,2.68,.63,4.26-1.37,4.06-3.87-.29-3.74-1.12-7.43-1.57-11.16-.34-2.77-.63-5.6-.23-8.38,.38-2.68,1.76-5.01,2.14-7.71Z"></path><g><path class="cls-1" d="M8.2,169.48c-.54-.34-1.17-.43-1.77-.33,.04,.02,.08,.04,.12,.07,1.17,.73,1.71,2.34,1.02,3.58-.41,.74-1.17,1.24-1.98,1.38h.02c1.27,.7,2.93,.11,3.61-1.12,.69-1.24,.15-2.84-1.02-3.58Z"></path><path class="cls-6" d="M7.56,172.8c.69-1.24,.15-2.84-1.02-3.58-.04-.02-.08-.04-.12-.07-.73,.13-1.42,.55-1.85,1.17-.17,.24-.28,.51-.35,.78,0,.02,0,.04-.01,.05-.01,.05-.02,.1-.03,.15-.19,1.11,.4,2.31,1.39,2.87,.81-.14,1.57-.65,1.98-1.38Z"></path></g><path class="cls-1" d="M4.65,176.78c-.67-.49-1.36-.95-2.05-1.42,.23-.37,.45-.74,.67-1.12,.29-.52-.44-.91-.78-.46-.25,.32-.49,.65-.74,.97-.46-.33-.94-.66-1.46-.8-.34-.09-.72,.32-.49,.63,.32,.44,.77,.77,1.24,1.08-.55,.71-1.11,1.41-1.69,2.1-.51,.6,.37,1.48,.87,.87,.62-.75,1.21-1.53,1.76-2.33,.7,.49,1.39,.99,2.11,1.45,.62,.4,1.14-.55,.57-.97Z"></path></g><path class="cls-1" d="M16.86,174.15c-2.58,0-5.3,.99-7.66,1.92-.32,.13-.19,.65,.15,.53,2.49-.9,5.05-1.26,7.58-1.98,.26-.07,.21-.47-.06-.47Z"></path><path class="cls-1" d="M15.87,177.57c-2.06-.64-4.61-.14-6.69,.24-.45,.08-.25,.74,.19,.68,2.15-.33,4.39-.09,6.51-.5,.22-.04,.19-.36,0-.42Z"></path></g><path class="cls-1" d="M42.1,149.32c-2.68-2.9-6.47-3.3-9.41-.69-1.58,1.4-2.28,1.22-2.94-.65-.17-.49-.39-1.26-1.14-1.08-.59,.14-.48,.84-.59,1.33-.22,1.01-.36,1.64-.56,1.95-.36-.07-.91-.41-1.79-.96-.42-.26-.85-.83-1.36-.5-.65,.41-.25,1.11-.02,1.57,.88,1.78,.51,2.4-1.59,2.56-3.92,.29-6.27,3.28-6.06,7.23,0,.18,.06,.47,.17,.51,.3,.11,.42-.17,.55-.39,.71-1.18,1.33-2.53,3.13-1.49,.13,.07,.53-.27,.76-.46,.34-.29,.62-.86,.97-.9,1.42-.14,2.71-.31,3.45-1.83,.18-.38,.92-.16,1.44,.02,1.03,.36,1.93,.45,2.71,.28h.05v-.02c.66-.43,1.23-1.14,1.68-2.13,.23-.5,.59-1.18,.99-1.05,1.6,.53,2.62-.28,3.71-1.2,.27-.23,.88-.03,1.32-.07,.3-.03,.83-.08,.86-.22,.51-2.01,1.91-1.52,3.25-1.21,.25,.06,.53,.17,.66-.12,.05-.1-.13-.34-.25-.48Z"></path><path d="M33.48,184.87c-.58-.82-1.5-.95-2.19-.63,.01-.04,.02-.08,.03-.12,.08-.28-.28-.42-.41-.2-1.94,3.18-3.18,6.96-4.53,10.46-.68,1.75-1.32,3.51-1.93,5.28-.66,1.93-1.56,3.76-2.2,5.7-.44,1.32-.74,2.71-.55,4.13,.26,1.91,1.5,3.65,1.28,5.63-.32,2.84-4.05,5.04-2.93,8.19,.58,1.64,2.75,2.55,3.81,.93,.76-1.15,1.08-2.84,1.53-4.14,.67-1.95,1.5-3.89,2.03-5.88,.35-1.29,.07-1.96-.46-3.12-.93-2.06-.94-4.23-.43-6.43,.87-3.76,2.83-7.2,4.46-10.61,.85-1.79,1.83-3.56,2.56-5.41,.47-1.22,.71-2.63-.08-3.77Z"></path><path class="cls-6" d="M-3.09,154.37v-.02c.15-.57,.25-1.14,.4-1.71,.13-.52,.25-1.06,.31-1.6,.47-.07,.98-.35,1.35-.49,.47-.17,.94-.35,1.4-.54,.13-.05,1.34-.43,.85-.69-.63-.34-1.27-.66-1.89-1.02-.31-.18-.95-.44-1.07-.79-.07-.2-.06-.42-.05-.64,.01-.95-.22-1.89-.32-2.83-.01-.12-.03-.25-.11-.34-.35-.4-1.47,.9-1.7,1.11-.41,.39-.92,.76-1.28,1.21-.4-.19-.85-.3-1.28-.43-.67-.21-1.33-.43-1.98-.7-.27-.11-.52,.12-.39,.4,.29,.64,.55,1.3,.81,1.95,.18,.46,.3,.96,.53,1.4-.2,.16-.37,.45-.48,.59-.34,.45-.65,.92-.96,1.39-.15,.24-.91,1.05-.57,1.3,.14,.1,.45,.03,.61,.01,.61-.05,1.22-.19,1.83-.23,.15-.01,1.21-.23,1.26-.15,.58,1.08,1.54,2.09,2.36,2.95,.16,.17,.31,0,.36-.16Z"></path><path class="cls-1" d="M44.81,183.52c-1.14,0-2.04,1.14-1.72,2.25,.03,.1,.06,.19,.09,.29,.49,1.61,2.77,1.61,3.26,0,.03-.1,.06-.19,.09-.29,.32-1.12-.57-2.25-1.72-2.25Z"></path><path class="cls-10" d="M38.19,194.22c-1.91,0-1.91,2.97,0,2.97s1.91-2.97,0-2.97Z"></path></g><g><g><path class="cls-6" d="M166.28,122.68c-1.67-3.79-5.89-5.39-9.53-6.64-3.34-1.14-6.85-2-10.39-2.46-.21-.22-.43-.44-.63-.67-1.32-1.48-2.28-3.2-3.29-4.9-.94-1.58-1.87-3.15-2.81-4.72-.83-1.39-1.61-3.01-2.75-4.2,.86-2.63,.99-6.29-1.62-6.92,.11-.23,.21-.45,.3-.65,1.06-2.46,.84-4.86,.78-7.48-.06-2.47,.39-4.93,1.25-7.25,.71-1.92,.76-4.04,1.02-6.11,.24-1.91-.61-3.05-2.37-2.09-2.15,1.16-3.4,4.37-4.6,6.32-1.81,2.94-3.61,5.86-5.41,8.8-1.58,2.6-3.18,5.23-4.06,8.16-.95,3.15-.79,6.5-1.11,9.74-.35,3.53-.99,7.02-1.89,10.45-.44,1.65-.81,3.59-1.75,5.03-.94,1.44-2.59,2.24-4.02,3.1-1.52,.92-3.13,1.8-4.69,2.75-5.08,2.45-12.78,7.61-7.09,12,2.91,2.25,7.8,2.18,11.29,2.35,4.58,.22,9.2,.15,13.79,.11,8.79-.08,17.68-.5,26.25-2.62,5.34-1.32,16.83-4.18,13.34-12.11Z"></path><path class="cls-10" d="M117.02,113.85s6.72,2,13.98,.99c5.29-.74,11.1-4.18,13.74-5.8,0,0,3.54,4.93,3.37,5.92-.17,.99-19.11,12.57-31.73,4.25,0,0-.19-4.74,.64-5.36Z"></path></g><path class="cls-3" d="M133.17,93.22c-.14-.06-.27-.13-.41-.17-.77-.22-1.54-.45-2.32-.63-.14-.03-.25-.09-.29-.25-.11-.52-.22-1.05-.34-1.57-.11-.47-.23-.93-.35-1.4-.04-.16-.11-.2-.28-.11-.21,.12-.31,.32-.41,.51-.39,.72-.89,1.36-1.38,2.01-.06,.08-.12,.11-.22,.09-.4-.1-.81-.14-1.23-.17-.32-.11-.67-.06-1.01-.11-.19-.03-.41-.04-.61,.03-.22,.07-.29,.19-.16,.32,.15,.16,.25,.35,.37,.52,.3,.4,.65,.76,.96,1.15,.22,.27,.5,.51,.19,.89,0,0,0,.02,0,.02-.15,.56-.41,1.07-.59,1.62-.1,.31-.23,.62-.31,.94-.02,.1-.1,.21,.04,.3,.12,.08,.22,.01,.33-.03,.22-.08,.42-.22,.64-.31,.37-.16,.75-.32,1.11-.52,.21-.12,.45-.18,.66-.32,.08-.05,.11,.02,.17,.07,.45,.44,.91,.86,1.34,1.31,.29,.3,.65,.49,.92,.81,.11,.12,.25,.26,.4,.2,.17-.07,.11-.27,.11-.43,0-.35-.04-.7,0-1.04,.08-.63,.09-1.25,0-1.87-.02-.18,.02-.32,.2-.37,.34-.11,.64-.28,.96-.44,.47-.22,.93-.45,1.4-.68,.1-.05,.17-.12,.19-.22,.02-.07-.04-.12-.1-.15Z"></path><path class="cls-3" d="M134.6,79.83c-.07,.03-.15,.06-.22,.1-.37,.22-.74,.43-1.1,.66-.06,.04-.13,.06-.2,.02-.24-.15-.48-.31-.73-.45-.22-.13-.44-.26-.67-.38-.08-.04-.12-.03-.14,.07-.03,.12,.01,.24,.04,.35,.13,.42,.19,.85,.26,1.28,0,.05,0,.09-.05,.12-.19,.11-.35,.26-.52,.41-.16,.08-.27,.24-.41,.35-.08,.06-.17,.14-.22,.24-.05,.11-.03,.18,.06,.18,.12,0,.23,.03,.34,.05,.27,.04,.53,.03,.8,.06,.18,.02,.38,0,.41,.26h0c.16,.27,.26,.57,.41,.84,.08,.15,.15,.32,.25,.47,.03,.05,.04,.12,.13,.1,.07-.02,.09-.08,.11-.14,.05-.12,.07-.24,.12-.36,.08-.2,.16-.41,.21-.62,.03-.13,.1-.24,.12-.37,.01-.05,.05-.04,.09-.04,.33,0,.67-.03,1-.03,.22,0,.43-.07,.65-.06,.09,0,.19,0,.23-.08,.04-.09-.06-.15-.12-.2-.13-.13-.28-.25-.4-.39-.21-.26-.45-.5-.72-.7-.08-.06-.11-.13-.07-.21,.09-.17,.13-.35,.19-.53,.09-.26,.17-.53,.26-.79,.02-.06,.02-.11-.02-.16-.02-.03-.06-.03-.09-.02Z"></path><path class="cls-3" d="M135.23,109.39c-.05-.08-.1-.17-.16-.25-.34-.41-.66-.82-1.02-1.21-.06-.07-.1-.15-.06-.24,.14-.32,.28-.65,.41-.98,.12-.29,.22-.59,.33-.89,.04-.1,.01-.15-.11-.16-.16-.01-.29,.06-.41,.12-.48,.24-.99,.4-1.5,.57-.06,.02-.11,.02-.15-.03-.18-.21-.39-.38-.6-.55-.13-.18-.34-.28-.5-.43-.09-.09-.21-.18-.34-.21-.14-.04-.23,0-.21,.11,.02,.14,0,.28,0,.42,0,.33,.07,.65,.09,.98,.02,.23,.08,.46-.23,.55,0,0,0,0,0,.01-.29,.24-.62,.43-.92,.66-.17,.13-.36,.25-.52,.39-.05,.04-.13,.08-.09,.17,.04,.09,.11,.09,.19,.11,.15,.04,.31,.04,.46,.07,.26,.05,.53,.11,.79,.13,.16,.01,.31,.07,.48,.08,.06,0,.06,.05,.07,.1,.08,.4,.17,.81,.23,1.21,.04,.27,.17,.51,.2,.78,.01,.11,.03,.24,.14,.26,.12,.03,.16-.11,.22-.19,.13-.19,.24-.39,.39-.56,.28-.31,.52-.64,.7-1.01,.05-.11,.13-.16,.25-.13,.22,.07,.45,.09,.68,.13,.34,.06,.67,.1,1.01,.16,.07,.01,.14,0,.19-.05,.03-.03,.02-.08,0-.12Z"></path><path class="cls-3" d="M113.66,131.38c-.06-.06-.12-.13-.19-.18-.38-.29-.75-.59-1.14-.86-.07-.05-.12-.11-.1-.2,.05-.31,.11-.63,.16-.94,.04-.28,.08-.56,.12-.85,.01-.1-.02-.14-.13-.12-.14,.02-.24,.11-.34,.19-.37,.31-.79,.55-1.2,.8-.05,.03-.09,.04-.14,0-.2-.15-.42-.26-.64-.37-.15-.13-.36-.18-.53-.28-.1-.06-.22-.11-.34-.12-.14,0-.2,.04-.16,.14,.05,.12,.06,.25,.09,.37,.07,.29,.19,.56,.28,.84,.06,.2,.16,.39-.09,.53h0c-.21,.28-.46,.51-.68,.78-.12,.15-.26,.29-.38,.45-.04,.05-.1,.09-.04,.17,.05,.07,.12,.06,.19,.06,.14,0,.28-.03,.42-.03,.24,0,.48,0,.72-.04,.14-.02,.29,0,.43-.03,.06-.01,.06,.03,.08,.07,.15,.34,.31,.68,.45,1.02,.09,.23,.25,.42,.33,.65,.03,.09,.08,.2,.18,.2,.11,0,.12-.13,.16-.21,.08-.19,.14-.39,.23-.57,.18-.33,.32-.67,.41-1.03,.03-.1,.08-.17,.19-.16,.21,.02,.42-.01,.63-.03,.31-.02,.61-.04,.92-.07,.07,0,.12-.03,.15-.08,.02-.03,0-.07-.02-.1Z"></path><path class="cls-3" d="M127.54,132.29c-.03-.15-.05-.31-.09-.46-.26-.79-.5-1.59-.8-2.37-.05-.14-.06-.27,.05-.39,.39-.4,.78-.8,1.17-1.2,.34-.36,.67-.74,1.01-1.11,.11-.13,.11-.22-.07-.3-.22-.11-.46-.08-.68-.06-.85,.08-1.69,.02-2.54-.03-.11,0-.17-.04-.2-.14-.14-.41-.35-.78-.56-1.16-.09-.34-.34-.61-.49-.93-.09-.18-.2-.38-.38-.51-.19-.14-.33-.14-.37,.05-.05,.22-.16,.42-.23,.62-.18,.49-.28,1-.44,1.5-.11,.34-.16,.73-.66,.67,0,0-.01,0-.02,.01-.57,.19-1.17,.27-1.74,.43-.33,.09-.67,.16-.99,.28-.1,.04-.24,.04-.23,.2,0,.15,.12,.2,.22,.27,.2,.14,.43,.24,.64,.37,.36,.23,.71,.47,1.09,.66,.23,.11,.42,.29,.66,.39,.09,.04,.05,.11,.04,.19-.12,.64-.22,1.29-.36,1.92-.09,.42-.05,.85-.16,1.26-.05,.16-.09,.37,.06,.47,.15,.11,.3-.06,.44-.15,.3-.2,.59-.44,.91-.6,.59-.3,1.13-.65,1.62-1.08,.14-.13,.29-.17,.44-.05,.29,.23,.62,.39,.93,.58,.46,.28,.93,.54,1.4,.82,.1,.06,.2,.07,.3,.03,.07-.03,.08-.1,.07-.17Z"></path><path class="cls-1" d="M130.65,112.05l-8.28,.86c-1.19,.12-2.07,1.2-1.95,2.39l.79,7.69c.12,1.19,1.2,2.07,2.39,1.95l8.28-.86c1.19-.12,2.07-1.2,1.95-2.39l-.79-7.69c-.12-1.19-1.2-2.07-2.39-1.95Zm0,8.12c.06,.63-.39,1.19-1.02,1.26l-4.35,.45c-.63,.06-1.19-.39-1.26-1.02l-.42-4.04c-.06-.63,.39-1.19,1.02-1.26l4.35-.45c.63-.06,1.19,.39,1.26,1.02l.42,4.04Z"></path></g><g><path class="cls-6" d="M119.48,78.08v-.03c-.09-.95-.23-1.89-.31-2.83-.07-.88-.18-1.76-.37-2.62,.68-.37,1.31-1.07,1.82-1.48,.63-.52,1.25-1.04,1.87-1.58,.17-.15,1.83-1.38,.94-1.51-1.15-.18-2.3-.33-3.45-.56-.57-.11-1.69-.17-2.07-.64-.22-.27-.31-.62-.42-.95-.49-1.48-1.35-2.78-2.01-4.18-.08-.18-.17-.36-.34-.46-.75-.42-1.78,2.17-2.02,2.63-.43,.82-1,1.66-1.32,2.55-.72-.08-1.47,0-2.19,.03-1.14,.04-2.28,.05-3.42-.02-.47-.03-.73,.47-.39,.82,.79,.82,1.55,1.7,2.28,2.57,.51,.61,.98,1.32,1.57,1.86-.22,.36-.33,.89-.42,1.17-.27,.87-.51,1.76-.73,2.64-.11,.45-.83,2.1-.18,2.3,.27,.08,.71-.2,.95-.31,.91-.41,1.77-.94,2.69-1.33,.22-.1,1.74-1.01,1.86-.9,1.47,1.35,3.49,2.38,5.2,3.27,.34,.18,.48-.17,.47-.44Z"></path><path class="cls-2" d="M20.23,84.97v-.03c.21-.88,.36-1.79,.57-2.67,.2-.82,.36-1.65,.45-2.49,.73-.13,1.51-.57,2.09-.8,.73-.28,1.45-.57,2.17-.87,.2-.08,2.08-.7,1.31-1.09-.99-.51-1.99-.99-2.96-1.54-.48-.27-1.49-.66-1.69-1.2-.12-.31-.1-.66-.1-.99,0-1.49-.39-2.93-.57-4.4-.02-.18-.05-.38-.17-.52-.55-.61-2.27,1.44-2.62,1.78-.63,.61-1.41,1.21-1.97,1.92-.63-.29-1.34-.44-2-.63-1.05-.3-2.08-.64-3.1-1.05-.42-.17-.81,.21-.6,.63,.47,.98,.9,2.01,1.3,3.02,.29,.71,.49,1.49,.87,2.16-.31,.26-.57,.71-.73,.94-.51,.71-.99,1.44-1.45,2.18-.24,.37-1.39,1.66-.86,2.04,.22,.16,.7,.03,.96,0,.95-.1,1.89-.32,2.84-.41,.23-.02,1.88-.39,1.96-.26,.93,1.67,2.45,3.21,3.74,4.53,.26,.26,.49,0,.56-.26Z"></path><path class="cls-2" d="M56.43,134.94h0c.16-.54,.28-1.07,.45-1.59,.15-.48,.29-.98,.37-1.48,.44-.05,.93-.28,1.29-.39,.45-.14,.89-.29,1.34-.44,.12-.04,1.27-.34,.83-.6-.58-.34-1.16-.68-1.72-1.04-.28-.18-.87-.46-.96-.79-.06-.19-.03-.4-.02-.6,.06-.89-.12-1.77-.16-2.66,0-.11-.01-.23-.08-.32-.31-.39-1.42,.77-1.65,.96-.4,.34-.89,.67-1.26,1.08-.37-.2-.78-.32-1.18-.46-.62-.22-1.22-.47-1.82-.75-.24-.12-.49,.09-.39,.35,.25,.61,.46,1.24,.66,1.86,.14,.44,.23,.91,.43,1.33-.2,.14-.37,.4-.48,.53-.33,.41-.65,.83-.96,1.25-.16,.21-.9,.94-.6,1.19,.13,.1,.42,.05,.57,.04,.58-.02,1.15-.12,1.72-.13,.14,0,1.15-.16,1.19-.08,.49,1.04,1.34,2.02,2.06,2.87,.14,.17,.29,.02,.35-.14Z"></path><g><g><path class="cls-10" d="M79.59,82.2c.78-5.62-.67-11.3-1.87-16.76-.27-1.24-.3-3.39-1.36-4.29-.98-.83-2.35-.33-3.07,.57-.98,1.22-1.25,2.72-2.42,3.87-1.12,1.1-2.86,2-4.47,1.95-2.04-.06-3.16-1.92-4.48-3.24-.85-.85-1.79-2.14-3.03-2.44-2.64-.64-2.4,3.87-2.51,5.38-.24,3.41-.18,6.84-.47,10.25-.25,2.84-.52,6.62-3.07,8.28-3.07,1.21-6.61,.85-9.52,2.66-.51,.32-.98,.68-1.42,1.06-3.24-4.1-4.83-7.72-5.14-11.65-.37-4.69,1.1-9.41,3.82-12.31,.78-.83,2.85-2.66,5.3-1.82,1.86,.64,3.44,2.51,3.94,4.64,.29,1.23,.08,2.65-.53,3.59-.43,.67-1.02,1.08-1.76,1.22-1.07,.21-1.95-.39-2.32-1.03-.39-.67-.29-1.42,.25-2.05,.42-.48,.38-1.18-.09-1.65-.48-.48-1.18-.51-1.67-.08-1.54,1.35-1.94,3.27-1.06,5.01,.87,1.73,3.07,3.19,5.56,2.64,1.96-.43,3.38-1.62,4.1-3.45,.97-2.46,.51-5.85-1.13-8.24-1.39-2.03-3.39-3.32-5.64-3.63-2.15-.3-4.32,.35-6.11,1.84-4.11,3.42-5.66,9.24-5.73,13.54-.11,5.89,2.27,11.83,6.21,15.67-1.34,1.94-2.18,4.25-2.58,6.58-.76,4.37-.41,9.08,1.13,13.25,.99,2.7,3.15,5.69,6.09,5.82,.65,.18,1.19,.08,1.65-.22,.1-.03,.2-.06,.3-.1,.28-.1,.39-.32,.38-.54,.13-.17,.26-.36,.37-.56-.28-.73-.52-1.47-.74-2.2-.76-2.55-1.3-5.42-.95-8.08,.06-.46,.82-.68,.9-.12,.37,2.48,.58,4.95,1.27,7.37,.1,.36,.22,.7,.34,1.05,.02-.06,.04-.11,.05-.17,.73,1.72,1.84,3.33,3.87,2.77,1.1-.3,1.88-1.19,2.49-2.1,.59-.89,1.25-1.96,1.56-3.06,.4-1.1,1.19-3.09,2.53-1.92,.74,.65,1.15,1.77,1.7,2.57,.85,1.26,2.05,2.51,3.65,2.68,4,.42,3.77-4.5,5.02-6.94,.44-.3,1.06-.25,1.51,.21,.55,.56,.82,1.33,1.35,1.93,.61,1.58,1.74,2.96,3.4,3.35,2.68,.63,4.26-1.37,4.06-3.87-.29-3.74-1.12-7.43-1.57-11.16-.34-2.77-.63-5.6-.23-8.38,.38-2.68,1.76-5.01,2.14-7.71Z"></path><path class="cls-1" d="M46.47,105.57c-.08-.56-.84-.34-.9,.12-.35,2.66,.19,5.53,.95,8.08,.22,.72,.46,1.46,.74,2.2,.34-.59,.61-1.29,.82-1.97-.12-.34-.24-.69-.34-1.05-.7-2.43-.9-4.89-1.27-7.37Z"></path><g><path class="cls-1" d="M64.3,73.39c-.54-.34-1.17-.43-1.77-.33,.04,.02,.08,.04,.12,.07,1.17,.73,1.71,2.34,1.02,3.58-.41,.74-1.17,1.24-1.98,1.38h.02c1.27,.7,2.93,.11,3.61-1.12,.69-1.24,.15-2.84-1.02-3.58Z"></path><path class="cls-6" d="M63.66,76.7c.69-1.24,.15-2.84-1.02-3.58-.04-.02-.08-.04-.12-.07-.73,.13-1.42,.55-1.85,1.17-.17,.24-.28,.51-.35,.78,0,.02,0,.04-.01,.05-.01,.05-.02,.1-.03,.15-.19,1.11,.4,2.31,1.39,2.87,.81-.14,1.57-.65,1.98-1.38Z"></path></g><g><path class="cls-1" d="M75.7,71.98c-.54-.34-1.17-.43-1.77-.33,.04,.02,.08,.04,.12,.07,1.17,.73,1.71,2.34,1.02,3.58-.41,.74-1.17,1.24-1.98,1.38h.02c1.27,.7,2.93,.11,3.61-1.12,.69-1.24,.15-2.84-1.02-3.58Z"></path><path class="cls-6" d="M75.06,75.3c.69-1.24,.15-2.84-1.02-3.58-.04-.02-.08-.04-.12-.07-.73,.13-1.42,.55-1.85,1.17-.17,.24-.28,.51-.35,.78,0,.02,0,.04-.01,.05-.01,.05-.02,.1-.03,.15-.19,1.11,.4,2.31,1.39,2.87,.81-.14,1.57-.65,1.98-1.38Z"></path></g><path class="cls-1" d="M72.15,79.28c-.67-.49-1.36-.95-2.05-1.42,.23-.37,.45-.74,.67-1.12,.29-.52-.44-.91-.78-.46-.25,.32-.49,.65-.74,.97-.46-.33-.94-.66-1.46-.8-.34-.09-.72,.32-.49,.63,.32,.44,.77,.77,1.24,1.08-.55,.71-1.11,1.41-1.69,2.1-.51,.6,.37,1.48,.87,.87,.62-.75,1.21-1.53,1.76-2.33,.7,.49,1.39,.99,2.11,1.45,.62,.4,1.14-.55,.57-.97Z"></path></g><path class="cls-1" d="M84.36,76.65c-2.58,0-5.3,.99-7.66,1.92-.32,.13-.19,.65,.15,.53,2.49-.9,5.05-1.26,7.58-1.98,.26-.07,.21-.47-.06-.47Z"></path><path class="cls-1" d="M83.37,80.07c-2.06-.64-4.61-.14-6.69,.24-.45,.08-.25,.74,.19,.68,2.15-.33,4.39-.09,6.51-.5,.22-.04,.19-.36,0-.42Z"></path><path class="cls-1" d="M58.91,78.36c-1.8-.84-4.33-1.68-6.28-.91-.21,.08-.27,.43,0,.48,.95,.2,1.93,.13,2.89,.25,1.08,.14,2.11,.42,3.12,.83,.37,.15,.64-.48,.27-.65Z"></path><path class="cls-1" d="M59.44,80.54c-2.36-.57-5.03-.75-7.35,.09-.32,.12-.3,.65,.09,.63,2.43-.12,4.75-.41,7.2-.23,.29,.02,.34-.43,.07-.5Z"></path></g><path class="cls-1" d="M109.6,51.82c-2.68-2.9-6.47-3.3-9.41-.69-1.58,1.4-2.28,1.22-2.94-.65-.17-.49-.39-1.26-1.14-1.08-.59,.14-.48,.84-.59,1.33-.22,1.01-.36,1.64-.56,1.95-.36-.07-.91-.41-1.79-.96-.42-.26-.85-.83-1.36-.5-.65,.41-.25,1.11-.02,1.57,.88,1.78,.51,2.4-1.59,2.56-3.92,.29-6.27,3.28-6.06,7.23,0,.18,.06,.47,.17,.51,.3,.11,.42-.17,.55-.39,.71-1.18,1.33-2.53,3.13-1.49,.13,.07,.53-.27,.76-.46,.34-.29,.62-.86,.97-.9,1.42-.14,2.71-.31,3.45-1.83,.18-.38,.92-.16,1.44,.02,1.03,.36,1.93,.45,2.71,.28h.05v-.02c.66-.43,1.23-1.14,1.68-2.13,.23-.5,.59-1.18,.99-1.05,1.6,.53,2.62-.28,3.71-1.2,.27-.23,.88-.03,1.32-.07,.3-.03,.83-.08,.86-.22,.51-2.01,1.91-1.52,3.25-1.21,.25,.06,.53,.17,.66-.12,.05-.1-.13-.34-.25-.48Z"></path><path d="M100.98,87.37c-.58-.82-1.5-.95-2.19-.63,.01-.04,.02-.08,.03-.12,.08-.28-.28-.42-.41-.2-1.94,3.18-3.18,6.96-4.53,10.46-.68,1.75-1.32,3.51-1.93,5.28-.66,1.93-1.56,3.76-2.2,5.7-.43,1.32-.74,2.71-.55,4.13,.26,1.91,1.5,3.65,1.28,5.63-.32,2.84-4.05,5.04-2.93,8.19,.58,1.64,2.75,2.55,3.81,.93,.76-1.15,1.08-2.84,1.53-4.14,.67-1.95,1.5-3.89,2.03-5.88,.35-1.29,.07-1.96-.46-3.12-.93-2.06-.94-4.23-.43-6.43,.87-3.76,2.83-7.2,4.46-10.61,.85-1.79,1.83-3.56,2.56-5.41,.47-1.22,.71-2.63-.08-3.77Z"></path><g><path class="cls-6" d="M89.64,125.72c-1.26-.38-3.52-2.26-4.7-.7-.4,.54-.34,1.25-.27,1.87,.12,1.15,.27,2.26,.37,3.4-.95,.16-2.37,1.21-2.65,1.42-2.01,1.5-3.65,3.42-5.11,5.43-.85,1.16-1.64,2.36-2.43,3.56-.85,1.29-2.04,2.68-2.49,4.18-.7,2.29,1.1,2.79,2.88,3.15,1.48,.3,1.78,1.61,2.82,2.48,.91,.76,2.07,.79,3.2,.9,.84,.08,1.56,.15,2.3,.57,.51,.29,.96,.71,1.49,.95,.88,.4,1.69,.37,2.48-.19,2-1.41,2.57-4.36,3.07-6.57,.6-2.63,1.14-5.37,.94-8.09-.15-1.98-.73-4.19-2.02-5.79,1.39-.99,3.24-2.37,3.55-3.9,.34-1.6-2.35-2.35-3.45-2.68Z"></path><path class="cls-1" d="M86.54,126.19c-.33,.84-.56,1.72-.77,2.6-.18,.77-.47,1.58-.39,2.38,.02,.16,.24,.26,.32,.09,.36-.71,.41-1.55,.57-2.32,.19-.89,.39-1.77,.54-2.67,.03-.18-.21-.24-.27-.07Z"></path><path class="cls-1" d="M88.23,127.81c-.46,.6-.81,1.31-1.15,1.99-.22,.45-.66,1.05-.48,1.56,.02,.06,.08,.08,.13,.05,.51-.24,.68-1.1,.89-1.59,.28-.64,.6-1.27,.82-1.92,.05-.14-.14-.19-.22-.09Z"></path><path class="cls-1" d="M90.27,127.61c-.52,.55-1.01,1.13-1.46,1.74-.39,.53-.89,1.13-.94,1.81,0,.06,.08,.12,.13,.08,.51-.39,.77-1.04,1.09-1.58,.4-.67,.82-1.34,1.27-1.98,.04-.05-.05-.12-.09-.07Z"></path><path class="cls-1" d="M91.28,128.52c-.89,.89-1.91,1.76-2.6,2.82-.14,.22,.16,.4,.34,.26,.98-.77,1.74-1.85,2.54-2.81,.16-.19-.09-.45-.27-.27Z"></path><g class="cls-8"><g><path class="cls-1" d="M81.15,136.44c-1.63,1.71-2.92,3.82-4.13,5.84-1.15,1.91-2.75,4.18-3.22,6.38-.02,.08,.09,.17,.15,.09,1.36-1.75,2.19-4.08,3.33-6,1.27-2.11,2.78-4.07,4.03-6.18,.06-.1-.08-.2-.16-.12Z"></path><path class="cls-1" d="M82.93,136.9c-1.11,1.36-1.93,2.98-2.81,4.5-.86,1.48-1.85,2.95-2.48,4.55-.03,.08,.09,.15,.15,.09,1.07-1.34,1.85-2.93,2.7-4.41,.87-1.52,1.87-3.04,2.49-4.68,.01-.03-.04-.06-.06-.03Z"></path><path class="cls-1" d="M84.04,137.77c-1.44,2.19-2.78,4.42-4.08,6.7-1.27,2.25-2.69,4.53-3.75,6.89-.13,.3,.25,.53,.44,.26,1.49-2.11,2.71-4.5,3.99-6.75,1.3-2.28,2.52-4.58,3.67-6.94,.09-.18-.16-.33-.28-.16Z"></path><path class="cls-1" d="M85.14,141.65c-1.27,1.62-1.76,3.91-2.42,5.82-.46,1.31-.93,2.62-1.5,3.88-.48,1.05-1.12,2.01-1.55,3.08-.05,.12,.13,.21,.21,.12,1.4-1.5,2.12-3.82,2.8-5.73,.8-2.24,1.27-5.08,2.65-7.04,.07-.1-.1-.24-.18-.14Z"></path><path class="cls-1" d="M85.53,144.01c-.72,3.46-3.07,6.71-3.02,10.29,0,.13,.18,.15,.22,.03,1.04-3.31,3.38-6.69,3.23-10.27,0-.24-.38-.31-.43-.06Z"></path><path class="cls-1" d="M89.68,138.71c-.59,1.72-.99,3.51-1.47,5.26-.46,1.71-1.08,3.41-1.45,5.14-.04,.21,.23,.33,.34,.14,.94-1.53,1.3-3.39,1.73-5.11,.44-1.78,.88-3.58,1.07-5.41,.01-.14-.19-.15-.23-.03Z"></path></g></g><path d="M80.32,132.91c-.41,0-1.57,1.43-1.57,1.83,0,.24,.51,.57,.66,.7,.55,.47,1.14,.88,1.75,1.27,1.67,1.08,3.51,1.97,5.45,2.44,.96,.23,1.96,.36,2.94,.28,.54-.04,1.12-.09,1.62-.33,.76-.36,.58-.68,.52-1.39-.02-.27-.04-.55-.08-.82-.04-.24-2.13-.32-2.34-.35-2.17-.34-4.26-1.08-6.21-2.07-.87-.44-1.69-.94-2.51-1.46-.07-.04-.14-.08-.22-.09,0,0-.01,0-.02,0Z"></path><path d="M90.47,131.93c-.21-.2-.68-.25-.96-.3-.94-.14-1.69-.57-2.53-.99-.41-.21-.83-.43-1.23-.66-.29-.17-.81-.66-1.14-.62-.47,.05-.64,.59-.49,.96,.32,.76,1.39,1.32,2.09,1.66,1.01,.49,3.43,1.8,4.26,.5,.16-.26,.13-.43,0-.55Z"></path></g><g><g><path class="cls-6" d="M31.28,122.68c-1.67-3.79-5.89-5.39-9.53-6.64-3.34-1.14-6.85-2-10.39-2.46-.21-.22-.43-.44-.63-.67-1.32-1.48-2.28-3.2-3.29-4.9-.94-1.58-1.87-3.15-2.81-4.72-.83-1.39-1.61-3.01-2.75-4.2,.86-2.63,.99-6.29-1.62-6.92,.11-.23,.21-.45,.3-.65,1.06-2.46,.84-4.86,.78-7.48-.06-2.47,.39-4.93,1.25-7.25,.71-1.92,.76-4.04,1.02-6.11,.24-1.91-.61-3.05-2.37-2.09-2.15,1.16-3.4,4.37-4.6,6.32-1.81,2.94-3.61,5.86-5.41,8.8-1.58,2.6-3.18,5.23-4.06,8.16-.95,3.15-.79,6.5-1.11,9.74-.35,3.53-.99,7.02-1.89,10.45-.44,1.65-.81,3.59-1.75,5.03-.94,1.44-2.59,2.24-4.02,3.1-1.52,.92-3.13,1.8-4.69,2.75-5.08,2.45-12.78,7.61-7.09,12,2.91,2.25,7.8,2.18,11.29,2.35,4.58,.22,9.2,.15,13.79,.11,8.79-.08,17.68-.5,26.25-2.62,5.34-1.32,16.83-4.18,13.34-12.11Z"></path><path class="cls-10" d="M-17.98,113.85s6.72,2,13.98,.99c5.29-.74,11.1-4.18,13.74-5.8,0,0,3.54,4.93,3.37,5.92-.17,.99-19.11,12.57-31.73,4.25,0,0-.19-4.74,.64-5.36Z"></path></g><path class="cls-3" d="M-1.83,93.22c-.14-.06-.27-.13-.41-.17-.77-.22-1.54-.45-2.32-.63-.14-.03-.25-.09-.29-.25-.11-.52-.22-1.05-.34-1.57-.11-.47-.23-.93-.35-1.4-.04-.16-.11-.2-.28-.11-.21,.12-.31,.32-.41,.51-.39,.72-.89,1.36-1.38,2.01-.06,.08-.12,.11-.22,.09-.4-.1-.81-.14-1.23-.17-.32-.11-.67-.06-1.01-.11-.19-.03-.41-.04-.61,.03-.22,.07-.29,.19-.16,.32,.15,.16,.25,.35,.37,.52,.3,.4,.65,.76,.96,1.15,.22,.27,.5,.51,.19,.89,0,0,0,.02,0,.02-.15,.56-.41,1.07-.59,1.62-.1,.31-.23,.62-.31,.94-.02,.1-.1,.21,.04,.3,.12,.08,.22,.01,.33-.03,.22-.08,.42-.22,.64-.31,.37-.16,.75-.32,1.11-.52,.21-.12,.45-.18,.66-.32,.08-.05,.11,.02,.17,.07,.45,.44,.91,.86,1.34,1.31,.29,.3,.65,.49,.92,.81,.11,.12,.25,.26,.4,.2,.17-.07,.11-.27,.11-.43,0-.35-.04-.7,0-1.04,.08-.63,.09-1.25,0-1.87-.02-.18,.02-.32,.2-.37,.34-.11,.64-.28,.96-.44,.47-.22,.93-.45,1.4-.68,.1-.05,.17-.12,.19-.22,.02-.07-.04-.12-.1-.15Z"></path><path class="cls-3" d="M-.4,79.83c-.07,.03-.15,.06-.22,.1-.37,.22-.74,.43-1.1,.66-.06,.04-.13,.06-.2,.02-.24-.15-.48-.31-.73-.45-.22-.13-.44-.26-.67-.38-.08-.04-.12-.03-.14,.07-.03,.12,.01,.24,.04,.35,.13,.42,.19,.85,.26,1.28,0,.05,0,.09-.05,.12-.19,.11-.35,.26-.52,.41-.16,.08-.27,.24-.41,.35-.08,.06-.17,.14-.22,.24-.05,.11-.03,.18,.06,.18,.12,0,.23,.03,.34,.05,.27,.04,.53,.03,.8,.06,.18,.02,.38,0,.41,.26h0c.16,.27,.26,.57,.41,.84,.08,.15,.15,.32,.25,.47,.03,.05,.04,.12,.13,.1,.07-.02,.09-.08,.11-.14,.05-.12,.07-.24,.12-.36,.08-.2,.16-.41,.21-.62,.03-.13,.1-.24,.12-.37,.01-.05,.05-.04,.09-.04,.33,0,.67-.03,1-.03,.22,0,.43-.07,.65-.06,.09,0,.19,0,.23-.08,.04-.09-.06-.15-.12-.2-.13-.13-.28-.25-.4-.39-.21-.26-.45-.5-.72-.7-.08-.06-.11-.13-.07-.21,.09-.17,.13-.35,.19-.53,.09-.26,.17-.53,.26-.79,.02-.06,.02-.11-.02-.16-.02-.03-.06-.03-.09-.02Z"></path><path class="cls-3" d="M.23,109.39c-.05-.08-.1-.17-.16-.25-.34-.41-.66-.82-1.02-1.21-.06-.07-.1-.15-.06-.24,.14-.32,.28-.65,.41-.98,.12-.29,.22-.59,.33-.89,.04-.1,.01-.15-.11-.16-.16-.01-.29,.06-.41,.12-.48,.24-.99,.4-1.5,.57-.06,.02-.11,.02-.15-.03-.18-.21-.39-.38-.6-.55-.13-.18-.34-.28-.5-.43-.09-.09-.21-.18-.34-.21-.14-.04-.23,0-.21,.11,.02,.14,0,.28,0,.42,0,.33,.07,.65,.09,.98,.02,.23,.08,.46-.23,.55,0,0,0,0,0,.01-.29,.24-.62,.43-.92,.66-.17,.13-.36,.25-.52,.39-.05,.04-.13,.08-.09,.17,.04,.09,.11,.09,.19,.11,.15,.04,.31,.04,.46,.07,.26,.05,.53,.11,.79,.13,.16,.01,.31,.07,.48,.08,.06,0,.06,.05,.07,.1,.08,.4,.17,.81,.23,1.21,.04,.27,.17,.51,.2,.78,.01,.11,.03,.24,.14,.26,.12,.03,.16-.11,.22-.19,.13-.19,.24-.39,.39-.56,.28-.31,.52-.64,.7-1.01,.05-.11,.13-.16,.25-.13,.22,.07,.45,.09,.68,.13,.34,.06,.67,.1,1.01,.16,.07,.01,.14,0,.19-.05,.03-.03,.02-.08,0-.12Z"></path><path class="cls-3" d="M19.34,118.4c-.07,.03-.15,.06-.22,.1-.37,.22-.74,.43-1.1,.66-.06,.04-.13,.06-.2,.02-.24-.15-.48-.31-.73-.45-.22-.13-.44-.26-.67-.38-.08-.04-.12-.03-.14,.07-.03,.12,.01,.24,.04,.35,.13,.42,.19,.85,.26,1.28,0,.05,0,.09-.05,.12-.19,.11-.35,.26-.52,.41-.16,.08-.27,.24-.41,.35-.08,.06-.17,.14-.22,.24-.05,.11-.03,.18,.06,.18,.12,0,.23,.03,.34,.05,.27,.04,.53,.03,.8,.06,.18,.02,.38,0,.41,.26h0c.16,.27,.26,.57,.41,.84,.08,.15,.15,.32,.25,.47,.03,.05,.04,.12,.13,.1,.07-.02,.09-.08,.11-.14,.05-.12,.07-.24,.12-.36,.08-.2,.16-.41,.21-.62,.03-.13,.1-.24,.12-.37,.01-.05,.05-.04,.09-.04,.33,0,.67-.03,1-.03,.22,0,.43-.07,.65-.06,.09,0,.19,0,.23-.08,.04-.09-.06-.15-.12-.2-.13-.13-.28-.25-.4-.39-.21-.26-.45-.5-.72-.7-.08-.06-.11-.13-.07-.21,.09-.17,.13-.35,.19-.53,.09-.26,.17-.53,.26-.79,.02-.06,.02-.11-.02-.16-.02-.03-.06-.03-.09-.02Z"></path><path class="cls-3" d="M13.75,131.42c-.08-.08-.15-.16-.23-.22-.46-.35-.91-.71-1.38-1.04-.08-.06-.14-.13-.12-.24,.07-.38,.14-.76,.2-1.14,.05-.34,.09-.68,.14-1.03,.02-.12-.02-.16-.16-.15-.17,.02-.29,.13-.41,.23-.45,.38-.96,.67-1.46,.97-.06,.04-.11,.04-.17,0-.24-.18-.5-.31-.77-.44-.19-.16-.43-.22-.64-.34-.12-.07-.26-.14-.41-.15-.16,0-.24,.05-.19,.17,.06,.15,.07,.3,.11,.45,.09,.35,.23,.68,.33,1.02,.07,.24,.19,.47-.11,.64,0,0,0,.01,0,.02-.25,.33-.56,.61-.83,.93-.15,.18-.32,.35-.46,.54-.04,.06-.12,.11-.05,.21,.06,.08,.14,.07,.23,.07,.17,0,.34-.03,.51-.04,.29,0,.59-.01,.88-.05,.18-.02,.35,0,.53-.04,.07-.01,.07,.04,.09,.09,.18,.41,.37,.82,.54,1.24,.11,.27,.3,.5,.4,.78,.04,.11,.09,.24,.21,.24,.13,0,.15-.15,.19-.25,.1-.23,.16-.48,.28-.69,.22-.4,.39-.81,.5-1.25,.03-.13,.1-.21,.23-.2,.25,.02,.51-.02,.76-.03,.37-.02,.74-.05,1.11-.08,.08,0,.14-.04,.19-.1,.03-.04,0-.09-.03-.12Z"></path><path class="cls-3" d="M-21.34,131.38c-.06-.06-.12-.13-.19-.18-.38-.29-.75-.59-1.14-.86-.07-.05-.12-.11-.1-.2,.05-.31,.11-.63,.16-.94,.04-.28,.08-.56,.12-.85,.01-.1-.02-.14-.13-.12-.14,.02-.24,.11-.34,.19-.37,.31-.79,.55-1.2,.8-.05,.03-.09,.04-.14,0-.2-.15-.42-.26-.64-.37-.15-.13-.36-.18-.53-.28-.1-.06-.22-.11-.34-.12-.14,0-.2,.04-.16,.14,.05,.12,.06,.25,.09,.37,.07,.29,.19,.56,.28,.84,.06,.2,.16,.39-.09,.53h0c-.21,.28-.46,.51-.68,.78-.12,.15-.26,.29-.38,.45-.04,.05-.1,.09-.04,.17,.05,.07,.12,.06,.19,.06,.14,0,.28-.03,.42-.03,.24,0,.48,0,.72-.04,.14-.02,.29,0,.43-.03,.06-.01,.06,.03,.08,.07,.15,.34,.31,.68,.45,1.02,.09,.23,.25,.42,.33,.65,.03,.09,.08,.2,.18,.2,.11,0,.12-.13,.16-.21,.08-.19,.14-.39,.23-.57,.18-.33,.32-.67,.41-1.03,.03-.1,.08-.17,.19-.16,.21,.02,.42-.01,.63-.03,.31-.02,.61-.04,.92-.07,.07,0,.12-.03,.15-.08,.02-.03,0-.07-.02-.1Z"></path><path class="cls-3" d="M-7.46,132.29c-.03-.15-.05-.31-.09-.46-.26-.79-.5-1.59-.8-2.37-.05-.14-.06-.27,.05-.39,.39-.4,.78-.8,1.17-1.2,.34-.36,.67-.74,1.01-1.11,.11-.13,.11-.22-.07-.3-.22-.11-.46-.08-.68-.06-.85,.08-1.69,.02-2.54-.03-.11,0-.17-.04-.2-.14-.14-.41-.35-.78-.56-1.16-.09-.34-.34-.61-.49-.93-.09-.18-.2-.38-.38-.51-.19-.14-.33-.14-.37,.05-.05,.22-.16,.42-.23,.62-.18,.49-.28,1-.44,1.5-.11,.34-.16,.73-.66,.67,0,0-.01,0-.02,.01-.57,.19-1.17,.27-1.74,.43-.33,.09-.67,.16-.99,.28-.1,.04-.24,.04-.23,.2,0,.15,.12,.2,.22,.27,.2,.14,.43,.24,.64,.37,.36,.23,.71,.47,1.09,.66,.23,.11,.42,.29,.66,.39,.09,.04,.05,.11,.04,.19-.12,.64-.22,1.29-.36,1.92-.09,.42-.05,.85-.16,1.26-.05,.16-.09,.37,.06,.47,.15,.11,.3-.06,.44-.15,.3-.2,.59-.44,.91-.6,.59-.3,1.13-.65,1.62-1.08,.14-.13,.29-.17,.44-.05,.29,.23,.62,.39,.93,.58,.46,.28,.93,.54,1.4,.82,.1,.06,.2,.07,.3,.03,.07-.03,.08-.1,.07-.17Z"></path><path class="cls-1" d="M-4.35,112.05l-8.28,.86c-1.19,.12-2.07,1.2-1.95,2.39l.79,7.69c.12,1.19,1.2,2.07,2.39,1.95l8.28-.86c1.19-.12,2.07-1.2,1.95-2.39l-.79-7.69c-.12-1.19-1.2-2.07-2.39-1.95Zm0,8.12c.06,.63-.39,1.19-1.02,1.26l-4.35,.45c-.63,.06-1.19-.39-1.26-1.02l-.42-4.04c-.06-.63,.39-1.19,1.02-1.26l4.35-.45c.63-.06,1.19,.39,1.26,1.02l.42,4.04Z"></path></g><path class="cls-6" d="M64.41,56.87v-.02c.15-.57,.25-1.14,.4-1.71,.13-.52,.25-1.06,.31-1.6,.47-.07,.98-.35,1.35-.49,.47-.17,.94-.35,1.4-.54,.13-.05,1.34-.43,.85-.69-.63-.34-1.27-.66-1.89-1.02-.31-.18-.95-.44-1.07-.79-.07-.2-.06-.42-.05-.64,.01-.95-.22-1.89-.32-2.83-.01-.12-.03-.25-.11-.34-.35-.4-1.47,.9-1.7,1.11-.41,.39-.92,.76-1.28,1.21-.4-.19-.85-.3-1.28-.43-.67-.21-1.33-.43-1.98-.7-.27-.11-.52,.12-.39,.4,.29,.64,.55,1.3,.81,1.95,.18,.46,.3,.96,.53,1.4-.2,.16-.37,.45-.48,.59-.34,.45-.65,.92-.96,1.39-.15,.24-.91,1.05-.57,1.3,.14,.1,.45,.03,.61,.01,.61-.05,1.22-.19,1.83-.23,.15-.01,1.21-.23,1.26-.15,.58,1.08,1.54,2.09,2.36,2.95,.16,.17,.31,0,.36-.16Z"></path><path class="cls-10" d="M54.83,46.98v-.04c-.19-.57-.64-1.11-1.25-1.24-.19-.04-.41-.07-.6-.08-.93-.03-1.82,.84-1.78,1.78,.04,.96,.78,1.79,1.78,1.78-.5-.07-.46-.07,.13,.01,.18,.01,.35-.01,.51-.08,.84-.34,1.52-1.16,1.21-2.14Z"></path><path class="cls-10" d="M43.31,51.63c-2.16,0-2.16,3.35,0,3.35s2.16-3.35,0-3.35Z"></path><path class="cls-10" d="M45.2,45.8c-.71,0-1.38,.62-1.36,1.36,.01,.28,.06,.54,.12,.81,.24,1.23,2.24,1.23,2.48,0,.05-.27,.11-.54,.12-.81,.03-.73-.64-1.36-1.36-1.36Z"></path><path class="cls-1" d="M112.31,86.02c-1.14,0-2.04,1.14-1.72,2.25,.03,.1,.06,.19,.09,.29,.49,1.61,2.77,1.61,3.26,0,.03-.1,.06-.19,.09-.29,.32-1.12-.57-2.25-1.72-2.25Z"></path><path class="cls-10" d="M105.69,96.72c-1.91,0-1.91,2.97,0,2.97s1.91-2.97,0-2.97Z"></path><path class="cls-10" d="M113.26,100.49c-1.93,0-1.93,2.99,0,2.99s1.93-2.99,0-2.99Z"></path><path class="cls-10" d="M77.02,125.95c-.24,.07-.46,.17-.66,.34-.49,.21-.84,.63-.84,1.22s.36,1.02,.85,1.23c.2,.16,.42,.26,.65,.33,1.15,.55,2.56-.23,2.56-1.56s-1.41-2.1-2.55-1.56Z"></path><path class="cls-10" d="M69.3,136.24c-.74,0-1.39,.02-1.99,.62-.56,.56-.57,1.52,0,2.09,.6,.6,1.25,.62,1.99,.62,.87,0,1.7-.77,1.66-1.66-.04-.9-.73-1.66-1.66-1.66Z"></path><path class="cls-10" d="M69.3,129.82c-1.29,0-1.29,2,0,2s1.29-2,0-2Z"></path><path class="cls-10" d="M35.74,132.83c-.91,.04-1.82,.78-1.76,1.76l.02,.32c.06,.91,.76,1.79,1.74,1.74,.99-.04,1.68-.77,1.74-1.74,0-.1,.01-.21,.02-.32,.06-.92-.85-1.8-1.76-1.76Z"></path><path class="cls-10" d="M55.12,150.67c-1.82,0-1.82,2.83,0,2.83s1.82-2.83,0-2.83Z"></path><path class="cls-10" d="M60.79,147.97c-.64,0-1.34,.58-1.27,1.27,.01,.16,.03,.32,.04,.47,.14,1.58,2.32,1.58,2.46,0,.01-.16,.03-.31,.04-.47,.06-.69-.63-1.27-1.27-1.27Z"></path><g><path class="cls-10" d="M18.45,100.57h0c-.03,.06-.03,.05,0,0Z"></path><path class="cls-10" d="M21.84,99.3c-.69-.63-1.81-.71-2.49,0-.21,.23-.4,.46-.59,.71-.05,.07-.25,.45-.31,.57-.7,1.4,.71,2.83,2.12,2.12-.19,.09-.08,.05,.35-.14,.35-.27,.46-.35,.32-.25-.14,.11-.03,.03,.33-.25,.09-.09,.18-.18,.28-.26,.66-.64,.69-1.85,0-2.49Z"></path></g><path class="cls-10" d="M24.87,108.05c-1.93,0-1.93,2.99,0,2.99s1.93-2.99,0-2.99Z"></path><path class="cls-10" d="M28.66,100.69c-.4-.04-.74,.05-1.1,.23-.81,.4-.81,1.74,0,2.14,.36,.18,.7,.27,1.1,.23,1.67-.16,1.67-2.43,0-2.59Z"></path><path class="cls-1" d="M26.07,121.11c-2.16,3.01-5.2,5.11-8.76,6.12-.77,.22-.44,1.42,.33,1.21,3.9-1.1,7.15-3.41,9.51-6.69,.47-.65-.61-1.28-1.08-.63Z"></path><path class="cls-1" d="M27.49,123.37c-.97,3.21-6.32,4.8-9.07,5.91-.74,.3-.41,1.51,.33,1.21,3.36-1.36,8.76-2.9,9.94-6.78,.23-.77-.97-1.1-1.21-.33Z"></path><path class="cls-1" d="M50.03,88.21c-1.56,.22-2.96,.89-4.15,1.92-.61,.53,.28,1.41,.88,.88,1.03-.9,2.25-1.41,3.6-1.6,.79-.11,.46-1.31-.33-1.21Z"></path><path class="cls-1" d="M51.49,90.55c-1.61,.06-3,.81-3.96,2.09-.48,.64,.6,1.27,1.08,.63,.69-.91,1.75-1.43,2.89-1.47,.8-.03,.81-1.28,0-1.25Z"></path><path class="cls-1" d="M51.33,93.21c-1.13,.2-2.08,.85-2.74,1.78-.47,.66,.62,1.28,1.08,.63,.48-.67,1.19-1.07,2-1.21,.79-.14,.46-1.34-.33-1.21Z"></path><path class="cls-1" d="M44.86,93.4c-.81,.3-1.46,.83-1.86,1.6-.37,.71,.71,1.35,1.08,.63,.24-.47,.61-.84,1.11-1.03,.75-.28,.42-1.49-.33-1.21Z"></path><path class="cls-1" d="M46.11,95.55c-.8,0-.81,1.25,0,1.25s.81-1.25,0-1.25Z"></path><path class="cls-1" d="M47.29,98.22c-.26-.16-.72-.09-.86,.22l-.65,1.51c-.13,.31-.09,.67,.22,.86,.26,.16,.72,.09,.86-.22l.65-1.51c.13-.31,.09-.67-.22-.86Z"></path></g><g><path class="cls-2" d="M123.93,37.44h0c.16-.54,.28-1.07,.45-1.59,.15-.48,.29-.98,.37-1.48,.44-.05,.93-.28,1.29-.39,.45-.14,.89-.29,1.34-.44,.12-.04,1.27-.34,.83-.6-.58-.34-1.16-.68-1.72-1.04-.28-.18-.87-.46-.96-.79-.06-.19-.03-.4-.02-.6,.06-.89-.12-1.77-.16-2.66,0-.11-.01-.23-.08-.32-.31-.39-1.42,.77-1.64,.96-.4,.34-.89,.67-1.26,1.08-.37-.2-.78-.32-1.18-.46-.62-.22-1.22-.47-1.82-.75-.24-.12-.49,.09-.39,.35,.25,.61,.46,1.24,.66,1.86,.14,.44,.23,.91,.43,1.33-.2,.14-.37,.4-.48,.53-.33,.41-.65,.83-.96,1.25-.16,.21-.9,.94-.6,1.19,.13,.1,.42,.05,.57,.04,.58-.02,1.15-.12,1.72-.13,.14,0,1.15-.16,1.19-.08,.49,1.04,1.34,2.02,2.06,2.87,.14,.17,.29,.02,.35-.14Z"></path><g><path class="cls-10" d="M147.09-15.3c.78-5.62-.67-11.3-1.87-16.76-.27-1.24-.3-3.39-1.36-4.29-.98-.83-2.35-.33-3.07,.57-.98,1.22-1.25,2.72-2.42,3.87-1.12,1.1-2.86,2-4.47,1.95-2.04-.06-3.16-1.92-4.48-3.24-.85-.85-1.79-2.14-3.03-2.44-2.64-.64-2.4,3.87-2.51,5.38-.24,3.41-.18,6.84-.47,10.25-.25,2.84-.52,6.62-3.07,8.28-3.07,1.21-6.61,.85-9.52,2.66-.51,.32-.98,.68-1.42,1.06-3.24-4.1-4.83-7.72-5.14-11.65-.37-4.69,1.1-9.41,3.82-12.31,.78-.83,2.85-2.66,5.3-1.82,1.86,.64,3.44,2.51,3.94,4.64,.29,1.23,.08,2.65-.53,3.59-.43,.67-1.02,1.08-1.76,1.22-1.07,.21-1.95-.39-2.32-1.03-.39-.67-.29-1.42,.25-2.05,.42-.48,.38-1.18-.09-1.65-.48-.48-1.18-.51-1.67-.08-1.54,1.35-1.94,3.27-1.06,5.01,.87,1.73,3.07,3.19,5.56,2.64,1.96-.43,3.38-1.62,4.1-3.45,.97-2.46,.51-5.85-1.13-8.24-1.39-2.03-3.39-3.32-5.64-3.63-2.15-.3-4.32,.35-6.11,1.84-4.11,3.42-5.66,9.24-5.73,13.54-.11,5.89,2.27,11.83,6.21,15.67-1.34,1.94-2.18,4.25-2.58,6.58-.76,4.37-.41,9.08,1.13,13.25,.99,2.7,3.15,5.69,6.09,5.82,.65,.18,1.19,.08,1.65-.22,.1-.03,.2-.06,.3-.1,.28-.1,.39-.32,.38-.54,.13-.17,.26-.36,.37-.56-.28-.73-.52-1.47-.74-2.2-.76-2.55-1.3-5.42-.95-8.08,.06-.46,.82-.68,.9-.12,.37,2.48,.58,4.95,1.27,7.37,.1,.36,.22,.7,.34,1.05,.02-.06,.04-.11,.05-.17,.73,1.72,1.84,3.33,3.87,2.77,1.1-.3,1.88-1.19,2.49-2.1,.59-.89,1.25-1.96,1.56-3.06,.4-1.1,1.19-3.09,2.53-1.92,.74,.65,1.15,1.77,1.7,2.57,.85,1.26,2.05,2.51,3.65,2.68,4,.42,3.77-4.5,5.02-6.94,.44-.3,1.06-.25,1.51,.21,.55,.56,.82,1.33,1.35,1.93,.61,1.58,1.74,2.96,3.4,3.35,2.68,.63,4.26-1.37,4.06-3.87-.29-3.74-1.12-7.43-1.57-11.16-.34-2.77-.63-5.6-.23-8.38,.38-2.68,1.76-5.01,2.14-7.71Z"></path><path class="cls-1" d="M113.97,8.07c-.08-.56-.84-.34-.9,.12-.35,2.66,.19,5.53,.95,8.08,.22,.72,.46,1.46,.74,2.2,.34-.59,.61-1.29,.82-1.97-.12-.34-.24-.69-.34-1.05-.7-2.43-.9-4.89-1.27-7.37Z"></path></g><g><g><path class="cls-6" d="M98.78,25.18c-1.67-3.79-5.89-5.39-9.53-6.64-3.34-1.14-6.85-2-10.39-2.46-.21-.22-.43-.44-.63-.67-1.32-1.48-2.28-3.2-3.29-4.9-.94-1.58-1.87-3.15-2.81-4.72-.83-1.39-1.61-3.01-2.75-4.2,.86-2.63,.99-6.29-1.62-6.92,.11-.23,.21-.45,.3-.65,1.06-2.46,.84-4.86,.78-7.48-.06-2.47,.39-4.93,1.25-7.25,.71-1.92,.76-4.04,1.02-6.11,.24-1.91-.61-3.05-2.37-2.09-2.15,1.16-3.4,4.37-4.6,6.32-1.81,2.94-3.61,5.86-5.41,8.8-1.58,2.6-3.18,5.23-4.06,8.16-.95,3.15-.79,6.5-1.11,9.74-.35,3.53-.99,7.02-1.89,10.45-.44,1.65-.81,3.59-1.75,5.03-.94,1.44-2.59,2.24-4.02,3.1-1.52,.92-3.13,1.8-4.69,2.75-5.08,2.45-12.78,7.61-7.09,12,2.91,2.25,7.8,2.18,11.29,2.35,4.58,.22,9.2,.15,13.79,.11,8.79-.08,17.68-.5,26.25-2.62,5.34-1.32,16.83-4.18,13.34-12.11Z"></path><path class="cls-10" d="M49.52,16.35s6.72,2,13.98,.99c5.29-.74,11.1-4.18,13.74-5.8,0,0,3.54,4.93,3.37,5.92-.17,.99-19.11,12.57-31.73,4.25,0,0-.19-4.74,.64-5.36Z"></path></g><path class="cls-3" d="M65.67-4.28c-.14-.06-.27-.13-.41-.17-.77-.22-1.54-.45-2.32-.63-.14-.03-.25-.09-.29-.25-.11-.52-.22-1.05-.34-1.57-.11-.47-.23-.93-.35-1.4-.04-.16-.11-.2-.28-.11-.21,.12-.31,.32-.41,.51-.39,.72-.89,1.36-1.38,2.01-.06,.08-.12,.11-.22,.09-.4-.1-.81-.14-1.23-.17-.32-.11-.67-.06-1.01-.11-.19-.03-.41-.04-.61,.03-.22,.07-.29,.19-.16,.32,.15,.16,.25,.35,.37,.52,.3,.4,.65,.76,.96,1.15,.22,.27,.5,.51,.19,.89,0,0,0,.02,0,.02-.15,.56-.41,1.07-.59,1.62-.1,.31-.23,.62-.31,.94-.02,.1-.1,.21,.04,.3,.12,.08,.22,.01,.33-.03,.22-.08,.42-.22,.64-.31,.37-.16,.75-.32,1.11-.52,.21-.12,.45-.18,.66-.32,.08-.05,.11,.02,.17,.07,.45,.44,.91,.86,1.34,1.31,.29,.3,.65,.49,.92,.81,.11,.12,.25,.26,.4,.2,.17-.07,.11-.27,.11-.43,0-.35-.04-.7,0-1.04,.08-.63,.09-1.25,0-1.87-.02-.18,.02-.32,.2-.37,.34-.11,.64-.28,.96-.44,.47-.22,.93-.45,1.4-.68,.1-.05,.17-.12,.19-.22,.02-.07-.04-.12-.1-.15Z"></path><path class="cls-3" d="M67.73,11.89c-.05-.08-.1-.17-.16-.25-.34-.41-.66-.82-1.02-1.21-.06-.07-.1-.15-.06-.24,.14-.32,.28-.65,.41-.98,.12-.29,.22-.59,.33-.89,.04-.1,.01-.15-.11-.16-.16-.01-.29,.06-.41,.12-.48,.24-.99,.4-1.5,.57-.06,.02-.11,.02-.15-.03-.18-.21-.39-.38-.6-.55-.13-.18-.34-.28-.5-.43-.09-.09-.21-.18-.34-.21-.14-.04-.23,0-.21,.11,.02,.14,0,.28,0,.42,0,.33,.07,.65,.09,.98,.02,.23,.08,.46-.23,.55,0,0,0,0,0,.01-.29,.24-.62,.43-.92,.66-.17,.13-.36,.25-.52,.39-.05,.04-.13,.08-.09,.17,.04,.09,.11,.09,.19,.11,.15,.04,.31,.04,.46,.07,.26,.05,.53,.11,.79,.13,.16,.01,.31,.07,.48,.08,.06,0,.06,.05,.07,.1,.08,.4,.17,.81,.23,1.21,.04,.27,.17,.51,.2,.78,.01,.11,.03,.24,.14,.26,.12,.03,.16-.11,.22-.19,.13-.19,.24-.39,.39-.56,.28-.31,.52-.64,.7-1.01,.05-.11,.13-.16,.25-.13,.22,.07,.45,.09,.68,.13,.34,.06,.67,.1,1.01,.16,.07,.01,.14,0,.19-.05,.03-.03,.02-.08,0-.12Z"></path><path class="cls-3" d="M86.84,20.9c-.07,.03-.15,.06-.22,.1-.37,.22-.74,.43-1.1,.66-.06,.04-.13,.06-.2,.02-.24-.15-.48-.31-.73-.45-.22-.13-.44-.26-.67-.38-.08-.04-.12-.03-.14,.07-.03,.12,.01,.24,.04,.35,.13,.42,.19,.85,.26,1.28,0,.05,0,.09-.05,.12-.19,.11-.35,.26-.52,.41-.16,.08-.27,.24-.41,.35-.08,.06-.17,.14-.22,.24-.05,.11-.03,.18,.06,.18,.12,0,.23,.03,.34,.05,.27,.04,.53,.03,.8,.06,.18,.02,.38,0,.41,.26h0c.16,.27,.26,.57,.41,.84,.08,.15,.15,.32,.25,.47,.03,.05,.04,.12,.13,.1,.07-.02,.09-.08,.11-.14,.05-.12,.07-.24,.12-.36,.08-.2,.16-.41,.21-.62,.03-.13,.1-.24,.12-.37,.01-.05,.05-.04,.09-.04,.33,0,.67-.03,1-.03,.22,0,.43-.07,.65-.06,.09,0,.19,0,.23-.08,.04-.09-.06-.15-.12-.2-.13-.13-.28-.25-.4-.39-.21-.26-.45-.5-.72-.7-.08-.06-.11-.13-.07-.21,.09-.17,.13-.35,.19-.53,.09-.26,.17-.53,.26-.79,.02-.06,.02-.11-.02-.16-.02-.03-.06-.03-.09-.02Z"></path><path class="cls-3" d="M81.25,33.92c-.08-.08-.15-.16-.23-.22-.46-.35-.91-.71-1.38-1.04-.08-.06-.14-.13-.12-.24,.07-.38,.14-.76,.2-1.14,.05-.34,.09-.68,.14-1.03,.02-.12-.02-.16-.16-.15-.17,.02-.29,.13-.41,.23-.45,.38-.96,.67-1.46,.97-.06,.04-.11,.04-.17,0-.24-.18-.5-.31-.77-.44-.19-.16-.43-.22-.64-.34-.12-.07-.26-.14-.41-.15-.16,0-.24,.05-.19,.17,.06,.15,.07,.3,.11,.45,.09,.35,.23,.68,.33,1.02,.07,.24,.19,.47-.11,.64,0,0,0,.01,0,.02-.25,.33-.56,.61-.83,.93-.15,.18-.32,.35-.46,.54-.04,.06-.12,.11-.05,.21,.06,.08,.14,.07,.23,.07,.17,0,.34-.03,.51-.04,.29,0,.59-.01,.88-.05,.18-.02,.35,0,.53-.04,.07-.01,.07,.04,.09,.09,.18,.41,.37,.82,.54,1.24,.11,.27,.3,.5,.4,.78,.04,.11,.09,.24,.21,.24,.13,0,.15-.15,.19-.25,.1-.23,.16-.48,.28-.69,.22-.4,.39-.81,.5-1.25,.03-.13,.1-.21,.23-.2,.25,.02,.51-.02,.76-.03,.37-.02,.74-.05,1.11-.08,.08,0,.14-.04,.19-.1,.03-.04,0-.09-.03-.12Z"></path><path class="cls-3" d="M46.16,33.88c-.06-.06-.12-.13-.19-.18-.38-.29-.75-.59-1.14-.86-.07-.05-.12-.11-.1-.2,.05-.31,.11-.63,.16-.94,.04-.28,.08-.56,.12-.85,.01-.1-.02-.14-.13-.12-.14,.02-.24,.11-.34,.19-.37,.31-.79,.55-1.2,.8-.05,.03-.09,.04-.14,0-.2-.15-.42-.26-.64-.37-.15-.13-.36-.18-.53-.28-.1-.06-.22-.11-.34-.12-.14,0-.2,.04-.16,.14,.05,.12,.06,.25,.09,.37,.07,.29,.19,.56,.28,.84,.06,.2,.16,.39-.09,.53h0c-.21,.28-.46,.51-.68,.78-.12,.15-.26,.29-.38,.45-.04,.05-.1,.09-.04,.17,.05,.07,.12,.06,.19,.06,.14,0,.28-.03,.42-.03,.24,0,.48,0,.72-.04,.14-.02,.29,0,.43-.03,.06-.01,.06,.03,.08,.07,.15,.34,.31,.68,.45,1.02,.09,.23,.25,.42,.33,.65,.03,.09,.08,.2,.18,.2,.11,0,.12-.13,.16-.21,.08-.19,.14-.39,.23-.57,.18-.33,.32-.67,.41-1.03,.03-.1,.08-.17,.19-.16,.21,.02,.42-.01,.63-.03,.31-.02,.61-.04,.92-.07,.07,0,.12-.03,.15-.08,.02-.03,0-.07-.02-.1Z"></path><path class="cls-3" d="M60.04,34.79c-.03-.15-.05-.31-.09-.46-.26-.79-.5-1.59-.8-2.37-.05-.14-.06-.27,.05-.39,.39-.4,.78-.8,1.17-1.2,.34-.36,.67-.74,1.01-1.11,.11-.13,.11-.22-.07-.3-.22-.11-.46-.08-.68-.06-.85,.08-1.69,.02-2.54-.03-.11,0-.17-.04-.2-.14-.14-.41-.35-.78-.56-1.16-.09-.34-.34-.61-.49-.93-.09-.18-.2-.38-.38-.51-.19-.14-.33-.14-.37,.05-.05,.22-.16,.42-.23,.62-.18,.49-.28,1-.44,1.5-.11,.34-.16,.73-.66,.67,0,0-.01,0-.02,.01-.57,.19-1.17,.27-1.74,.43-.33,.09-.67,.16-.99,.28-.1,.04-.24,.04-.23,.2,0,.15,.12,.2,.22,.27,.2,.14,.43,.24,.64,.37,.36,.23,.71,.47,1.09,.66,.23,.11,.42,.29,.66,.39,.09,.04,.05,.11,.04,.19-.12,.64-.22,1.29-.36,1.92-.09,.42-.05,.85-.16,1.26-.05,.16-.09,.37,.06,.47,.15,.11,.3-.06,.44-.15,.3-.2,.59-.44,.91-.6,.59-.3,1.13-.65,1.62-1.08,.14-.13,.29-.17,.44-.05,.29,.23,.62,.39,.93,.58,.46,.28,.93,.54,1.4,.82,.1,.06,.2,.07,.3,.03,.07-.03,.08-.1,.07-.17Z"></path><path class="cls-1" d="M63.15,14.55l-8.28,.86c-1.19,.12-2.07,1.2-1.95,2.39l.79,7.69c.12,1.19,1.2,2.07,2.39,1.95l8.28-.86c1.19-.12,2.07-1.2,1.95-2.39l-.79-7.69c-.12-1.19-1.2-2.07-2.39-1.95Zm0,8.12c.06,.63-.39,1.19-1.02,1.26l-4.35,.45c-.63,.06-1.19-.39-1.26-1.02l-.42-4.04c-.06-.63,.39-1.19,1.02-1.26l4.35-.45c.63-.06,1.19,.39,1.26,1.02l.42,4.04Z"></path></g><path class="cls-10" d="M136.8,38.74c-.74,0-1.39,.02-1.99,.62-.56,.56-.57,1.52,0,2.09,.6,.6,1.25,.62,1.99,.62,.87,0,1.7-.77,1.66-1.66-.04-.9-.73-1.66-1.66-1.66Z"></path><path class="cls-10" d="M103.24,35.33c-.91,.04-1.82,.78-1.76,1.76l.02,.32c.06,.91,.76,1.79,1.74,1.74,.99-.04,1.68-.77,1.74-1.74,0-.1,.01-.21,.02-.32,.06-.92-.85-1.8-1.76-1.76Z"></path><path class="cls-10" d="M122.62,53.17c-1.82,0-1.82,2.83,0,2.83s1.82-2.83,0-2.83Z"></path><path class="cls-10" d="M128.29,50.47c-.64,0-1.34,.58-1.27,1.27,.01,.16,.03,.32,.04,.47,.14,1.58,2.32,1.58,2.46,0,.01-.16,.03-.31,.04-.47,.06-.69-.63-1.27-1.27-1.27Z"></path><g><path class="cls-10" d="M85.95,3.07h0c-.03,.06-.03,.05,0,0Z"></path><path class="cls-10" d="M89.34,1.8c-.69-.63-1.81-.71-2.49,0-.21,.23-.4,.46-.59,.71-.05,.07-.25,.45-.31,.57-.7,1.4,.71,2.83,2.12,2.12-.19,.09-.08,.05,.35-.14,.35-.27,.46-.35,.32-.25-.14,.11-.03,.03,.33-.25,.09-.09,.18-.18,.28-.26,.66-.64,.69-1.85,0-2.49Z"></path></g><path class="cls-10" d="M92.37,10.55c-1.93,0-1.93,2.99,0,2.99s1.93-2.99,0-2.99Z"></path><path class="cls-10" d="M96.16,3.19c-.4-.04-.74,.05-1.1,.23-.81,.4-.81,1.74,0,2.14,.36,.18,.7,.27,1.1,.23,1.67-.16,1.67-2.43,0-2.59Z"></path><path class="cls-1" d="M93.57,23.61c-2.16,3.01-5.2,5.11-8.76,6.12-.77,.22-.44,1.42,.33,1.21,3.9-1.1,7.15-3.41,9.51-6.69,.47-.65-.61-1.28-1.08-.63Z"></path><path class="cls-1" d="M94.99,25.87c-.97,3.21-6.32,4.8-9.07,5.91-.74,.3-.41,1.51,.33,1.21,3.36-1.36,8.76-2.9,9.94-6.78,.23-.77-.97-1.1-1.21-.33Z"></path><path class="cls-1" d="M114.79,.72c-.26-.16-.72-.09-.86,.22l-.65,1.51c-.13,.31-.09,.67,.22,.86,.26,.16,.72,.09,.86-.22l.65-1.51c.13-.31,.09-.67-.22-.86Z"></path></g><g><path class="cls-10" d="M12.09-15.3c.78-5.62-.67-11.3-1.87-16.76-.27-1.24-.3-3.39-1.36-4.29-.98-.83-2.35-.33-3.07,.57-.98,1.22-1.25,2.72-2.42,3.87-1.12,1.1-2.86,2-4.47,1.95-2.04-.06-3.16-1.92-4.49-3.24-.85-.85-1.79-2.14-3.03-2.44-2.64-.64-2.4,3.87-2.51,5.38-.24,3.41-.18,6.84-.47,10.25-.25,2.84-.52,6.62-3.07,8.28-3.07,1.21-6.61,.85-9.52,2.66-.51,.32-.98,.68-1.42,1.06-3.24-4.1-4.83-7.72-5.14-11.65-.37-4.69,1.1-9.41,3.82-12.31,.78-.83,2.85-2.66,5.3-1.82,1.86,.64,3.44,2.51,3.94,4.64,.29,1.23,.08,2.65-.53,3.59-.43,.67-1.02,1.08-1.76,1.22-1.07,.21-1.95-.39-2.32-1.03-.39-.67-.29-1.42,.25-2.05,.42-.48,.38-1.18-.09-1.65-.48-.48-1.18-.51-1.67-.08-1.54,1.35-1.94,3.27-1.06,5.01,.87,1.73,3.07,3.19,5.56,2.64,1.96-.43,3.38-1.62,4.1-3.45,.97-2.46,.51-5.85-1.13-8.24-1.39-2.03-3.39-3.32-5.64-3.63-2.15-.3-4.32,.35-6.11,1.84-4.11,3.42-5.66,9.24-5.73,13.54-.11,5.89,2.27,11.83,6.21,15.67-1.34,1.94-2.18,4.25-2.58,6.58-.76,4.37-.41,9.08,1.13,13.25,.99,2.7,3.15,5.69,6.09,5.82,.65,.18,1.19,.08,1.65-.22,.1-.03,.2-.06,.3-.1,.28-.1,.39-.32,.38-.54,.13-.17,.26-.36,.37-.56-.28-.73-.52-1.47-.74-2.2-.76-2.55-1.3-5.42-.95-8.08,.06-.46,.82-.68,.9-.12,.37,2.48,.58,4.95,1.27,7.37,.1,.36,.22,.7,.34,1.05,.02-.06,.04-.11,.05-.17,.73,1.72,1.84,3.33,3.87,2.77,1.1-.3,1.88-1.19,2.49-2.1,.59-.89,1.25-1.96,1.56-3.06,.4-1.1,1.19-3.09,2.53-1.92,.74,.65,1.15,1.77,1.7,2.57,.85,1.26,2.05,2.51,3.65,2.68C.42,17.69,.19,12.77,1.44,10.33c.44-.3,1.06-.25,1.51,.21,.55,.56,.82,1.33,1.35,1.93,.61,1.58,1.74,2.96,3.4,3.35,2.68,.63,4.26-1.37,4.06-3.87-.29-3.74-1.12-7.43-1.57-11.16-.34-2.77-.63-5.6-.23-8.38,.38-2.68,1.76-5.01,2.14-7.71Z"></path><path d="M33.48-10.13c-.58-.82-1.5-.95-2.19-.63,.01-.04,.02-.08,.03-.12,.08-.28-.28-.42-.41-.2-1.94,3.18-3.18,6.96-4.53,10.46-.68,1.75-1.32,3.51-1.93,5.28-.66,1.93-1.56,3.76-2.2,5.7-.44,1.32-.74,2.71-.55,4.13,.26,1.91,1.5,3.65,1.28,5.63-.32,2.84-4.05,5.04-2.93,8.19,.58,1.64,2.75,2.55,3.81,.93,.76-1.15,1.08-2.84,1.53-4.14,.67-1.95,1.5-3.89,2.03-5.88,.35-1.29,.07-1.96-.46-3.12-.93-2.06-.94-4.23-.43-6.43,.87-3.76,2.83-7.2,4.46-10.61,.85-1.79,1.83-3.56,2.56-5.41,.47-1.22,.71-2.63-.08-3.77Z"></path><g><path class="cls-6" d="M22.14,28.22c-1.26-.38-3.52-2.26-4.7-.7-.4,.54-.34,1.25-.27,1.87,.12,1.15,.27,2.26,.37,3.4-.95,.16-2.37,1.21-2.65,1.42-2.01,1.5-3.65,3.42-5.11,5.43-.85,1.16-1.64,2.36-2.43,3.56-.85,1.29-2.04,2.68-2.49,4.18-.7,2.29,1.1,2.79,2.88,3.15,1.48,.3,1.78,1.61,2.82,2.48,.91,.76,2.07,.79,3.2,.9,.84,.08,1.56,.15,2.3,.57,.51,.29,.96,.71,1.49,.95,.88,.4,1.69,.37,2.48-.19,2-1.41,2.57-4.36,3.07-6.57,.6-2.63,1.14-5.37,.94-8.09-.15-1.98-.73-4.19-2.02-5.79,1.39-.99,3.24-2.37,3.55-3.9,.34-1.6-2.35-2.35-3.45-2.68Z"></path><path class="cls-1" d="M19.04,28.69c-.33,.84-.56,1.72-.77,2.6-.18,.77-.47,1.58-.39,2.38,.02,.16,.24,.26,.32,.09,.36-.71,.41-1.55,.57-2.32,.19-.89,.39-1.77,.54-2.67,.03-.18-.21-.24-.27-.07Z"></path><path class="cls-1" d="M20.73,30.31c-.46,.6-.81,1.31-1.15,1.99-.22,.45-.66,1.05-.48,1.56,.02,.06,.08,.08,.13,.05,.51-.24,.68-1.1,.89-1.59,.28-.64,.6-1.27,.82-1.92,.05-.14-.14-.19-.22-.09Z"></path><path class="cls-1" d="M22.77,30.11c-.52,.55-1.01,1.13-1.46,1.74-.39,.53-.89,1.13-.94,1.81,0,.06,.08,.12,.13,.08,.51-.39,.77-1.04,1.09-1.58,.4-.67,.82-1.34,1.27-1.98,.04-.05-.05-.12-.09-.07Z"></path><path class="cls-1" d="M23.78,31.02c-.89,.89-1.91,1.76-2.6,2.82-.14,.22,.16,.4,.34,.26,.98-.77,1.74-1.85,2.54-2.81,.16-.19-.09-.45-.27-.27Z"></path><g class="cls-4"><g><path class="cls-1" d="M13.65,38.94c-1.63,1.71-2.92,3.82-4.13,5.84-1.15,1.91-2.75,4.18-3.22,6.38-.02,.08,.09,.17,.15,.09,1.36-1.75,2.19-4.08,3.33-6,1.27-2.11,2.78-4.07,4.03-6.18,.06-.1-.08-.2-.16-.12Z"></path><path class="cls-1" d="M15.43,39.4c-1.11,1.36-1.93,2.98-2.81,4.5-.86,1.48-1.85,2.95-2.48,4.55-.03,.08,.09,.15,.15,.09,1.07-1.34,1.85-2.93,2.7-4.41,.87-1.52,1.87-3.04,2.49-4.68,.01-.03-.04-.06-.06-.03Z"></path><path class="cls-1" d="M16.54,40.27c-1.44,2.19-2.78,4.42-4.08,6.7-1.27,2.25-2.69,4.53-3.75,6.89-.13,.3,.25,.53,.44,.26,1.49-2.11,2.71-4.5,3.99-6.75,1.3-2.28,2.52-4.58,3.67-6.94,.09-.18-.16-.33-.28-.16Z"></path><path class="cls-1" d="M17.64,44.15c-1.27,1.62-1.76,3.91-2.42,5.82-.46,1.31-.93,2.62-1.5,3.88-.48,1.05-1.12,2.01-1.55,3.08-.05,.12,.13,.21,.21,.12,1.4-1.5,2.12-3.82,2.8-5.73,.8-2.24,1.27-5.08,2.65-7.04,.07-.1-.1-.24-.18-.14Z"></path><path class="cls-1" d="M18.03,46.51c-.72,3.46-3.07,6.71-3.02,10.29,0,.13,.18,.15,.22,.03,1.04-3.31,3.38-6.69,3.23-10.27,0-.24-.38-.31-.43-.06Z"></path><path class="cls-1" d="M22.18,41.21c-.59,1.72-.99,3.51-1.47,5.26-.46,1.71-1.08,3.41-1.45,5.14-.04,.21,.23,.33,.34,.14,.94-1.53,1.3-3.39,1.73-5.11,.44-1.78,.88-3.58,1.07-5.41,.01-.14-.19-.15-.23-.03Z"></path></g></g><path d="M12.82,35.41c-.41,0-1.57,1.43-1.57,1.83,0,.24,.51,.57,.66,.7,.55,.47,1.14,.88,1.75,1.27,1.67,1.07,3.51,1.97,5.45,2.44,.96,.23,1.96,.36,2.94,.28,.54-.04,1.12-.09,1.62-.33,.76-.36,.58-.68,.52-1.39-.02-.27-.04-.55-.08-.82-.04-.24-2.13-.32-2.34-.35-2.17-.34-4.26-1.08-6.21-2.07-.87-.44-1.69-.94-2.51-1.46-.07-.04-.14-.08-.22-.09,0,0-.01,0-.02,0Z"></path><path d="M22.98,34.43c-.21-.2-.68-.25-.96-.3-.94-.14-1.69-.57-2.53-.99-.41-.21-.83-.43-1.23-.66-.29-.17-.81-.66-1.14-.62-.47,.05-.64,.59-.49,.96,.32,.76,1.39,1.32,2.09,1.66,1.01,.49,3.43,1.8,4.26,.5,.16-.26,.13-.43,0-.55Z"></path></g><path class="cls-10" d="M38.19-.78c-1.91,0-1.91,2.97,0,2.97s1.91-2.97,0-2.97Z"></path><path class="cls-10" d="M45.76,2.99c-1.93,0-1.93,2.99,0,2.99s1.93-2.99,0-2.99Z"></path><path class="cls-10" d="M9.52,28.45c-.24,.07-.46,.17-.66,.34-.49,.21-.84,.63-.84,1.22s.36,1.02,.85,1.23c.2,.16,.42,.26,.65,.33,1.15,.55,2.56-.23,2.56-1.56s-1.41-2.1-2.55-1.56Z"></path><path class="cls-10" d="M1.8,38.74c-.74,0-1.39,.02-1.99,.62-.56,.56-.57,1.52,0,2.09,.6,.6,1.25,.62,1.99,.62,.87,0,1.7-.77,1.66-1.66-.04-.9-.73-1.66-1.66-1.66Z"></path><path class="cls-10" d="M1.8,32.32c-1.29,0-1.29,2,0,2s1.29-2,0-2Z"></path></g></g></pattern></defs><g id="PATTERN"><g><rect class="cls-5" width="990" height="539.62"></rect><rect class="cls-7" y=".38" width="990" height="539.62"></rect></g></g></svg>